%TF.GenerationSoftware,KiCad,Pcbnew,(5.1.6-0-10_14)*%
%TF.CreationDate,2020-07-27T20:59:48+02:00*%
%TF.ProjectId,DoorLightController,446f6f72-4c69-4676-9874-436f6e74726f,rev?*%
%TF.SameCoordinates,Original*%
%TF.FileFunction,Legend,Top*%
%TF.FilePolarity,Positive*%
%FSLAX46Y46*%
G04 Gerber Fmt 4.6, Leading zero omitted, Abs format (unit mm)*
G04 Created by KiCad (PCBNEW (5.1.6-0-10_14)) date 2020-07-27 20:59:48*
%MOMM*%
%LPD*%
G01*
G04 APERTURE LIST*
%ADD10C,0.150000*%
%ADD11C,0.120000*%
G04 APERTURE END LIST*
D10*
X225453571Y-101810714D02*
X225453571Y-101239285D01*
X225346428Y-100632142D02*
X225382142Y-100525000D01*
X225417857Y-100489285D01*
X225489285Y-100453571D01*
X225596428Y-100453571D01*
X225667857Y-100489285D01*
X225703571Y-100525000D01*
X225739285Y-100596428D01*
X225739285Y-100882142D01*
X224989285Y-100882142D01*
X224989285Y-100632142D01*
X225025000Y-100560714D01*
X225060714Y-100525000D01*
X225132142Y-100489285D01*
X225203571Y-100489285D01*
X225275000Y-100525000D01*
X225310714Y-100560714D01*
X225346428Y-100632142D01*
X225346428Y-100882142D01*
X225025000Y-99739285D02*
X224989285Y-99810714D01*
X224989285Y-99917857D01*
X225025000Y-100025000D01*
X225096428Y-100096428D01*
X225167857Y-100132142D01*
X225310714Y-100167857D01*
X225417857Y-100167857D01*
X225560714Y-100132142D01*
X225632142Y-100096428D01*
X225703571Y-100025000D01*
X225739285Y-99917857D01*
X225739285Y-99846428D01*
X225703571Y-99739285D01*
X225667857Y-99703571D01*
X225417857Y-99703571D01*
X225417857Y-99846428D01*
X225739285Y-98953571D02*
X225382142Y-99203571D01*
X225739285Y-99382142D02*
X224989285Y-99382142D01*
X224989285Y-99096428D01*
X225025000Y-99025000D01*
X225060714Y-98989285D01*
X225132142Y-98953571D01*
X225239285Y-98953571D01*
X225310714Y-98989285D01*
X225346428Y-99025000D01*
X225382142Y-99096428D01*
X225382142Y-99382142D01*
X229860714Y-100892857D02*
X229825000Y-100857142D01*
X229789285Y-100785714D01*
X229789285Y-100607142D01*
X229825000Y-100535714D01*
X229860714Y-100500000D01*
X229932142Y-100464285D01*
X230003571Y-100464285D01*
X230110714Y-100500000D01*
X230539285Y-100928571D01*
X230539285Y-100464285D01*
X230039285Y-99821428D02*
X230539285Y-99821428D01*
X229753571Y-100000000D02*
X230289285Y-100178571D01*
X230289285Y-99714285D01*
X229789285Y-99535714D02*
X230539285Y-99285714D01*
X229789285Y-99035714D01*
X230953571Y-100750000D02*
X230953571Y-100178571D01*
X230953571Y-99821428D02*
X230953571Y-99250000D01*
X231239285Y-99535714D02*
X230667857Y-99535714D01*
X190978571Y-105871428D02*
X190978571Y-105271428D01*
X191178571Y-105700000D01*
X191378571Y-105271428D01*
X191378571Y-105871428D01*
X191664285Y-105871428D02*
X191664285Y-105271428D01*
X192292857Y-105814285D02*
X192264285Y-105842857D01*
X192178571Y-105871428D01*
X192121428Y-105871428D01*
X192035714Y-105842857D01*
X191978571Y-105785714D01*
X191950000Y-105728571D01*
X191921428Y-105614285D01*
X191921428Y-105528571D01*
X191950000Y-105414285D01*
X191978571Y-105357142D01*
X192035714Y-105300000D01*
X192121428Y-105271428D01*
X192178571Y-105271428D01*
X192264285Y-105300000D01*
X192292857Y-105328571D01*
X192550000Y-105871428D02*
X192550000Y-105271428D01*
X192550000Y-105557142D02*
X192892857Y-105557142D01*
X192892857Y-105871428D02*
X192892857Y-105271428D01*
X193150000Y-105700000D02*
X193435714Y-105700000D01*
X193092857Y-105871428D02*
X193292857Y-105271428D01*
X193492857Y-105871428D01*
X193692857Y-105557142D02*
X193892857Y-105557142D01*
X193978571Y-105871428D02*
X193692857Y-105871428D01*
X193692857Y-105271428D01*
X193978571Y-105271428D01*
X194521428Y-105871428D02*
X194235714Y-105871428D01*
X194235714Y-105271428D01*
X194635714Y-105271428D02*
X194978571Y-105271428D01*
X194807142Y-105871428D02*
X194807142Y-105271428D01*
X195178571Y-105557142D02*
X195378571Y-105557142D01*
X195464285Y-105871428D02*
X195178571Y-105871428D01*
X195178571Y-105271428D01*
X195464285Y-105271428D01*
X195721428Y-105557142D02*
X195921428Y-105557142D01*
X196007142Y-105871428D02*
X195721428Y-105871428D01*
X195721428Y-105271428D01*
X196007142Y-105271428D01*
X196264285Y-105271428D02*
X196264285Y-105757142D01*
X196292857Y-105814285D01*
X196321428Y-105842857D01*
X196378571Y-105871428D01*
X196492857Y-105871428D01*
X196550000Y-105842857D01*
X196578571Y-105814285D01*
X196607142Y-105757142D01*
X196607142Y-105271428D01*
X196835714Y-105271428D02*
X196978571Y-105871428D01*
X197092857Y-105442857D01*
X197207142Y-105871428D01*
X197350000Y-105271428D01*
X197578571Y-105814285D02*
X197607142Y-105842857D01*
X197578571Y-105871428D01*
X197550000Y-105842857D01*
X197578571Y-105814285D01*
X197578571Y-105871428D01*
X197864285Y-105871428D02*
X197864285Y-105271428D01*
X198207142Y-105871428D01*
X198207142Y-105271428D01*
X198778571Y-105871428D02*
X198492857Y-105871428D01*
X198492857Y-105271428D01*
X199435714Y-105871428D02*
X199435714Y-105271428D01*
X199578571Y-105271428D01*
X199664285Y-105300000D01*
X199721428Y-105357142D01*
X199750000Y-105414285D01*
X199778571Y-105528571D01*
X199778571Y-105614285D01*
X199750000Y-105728571D01*
X199721428Y-105785714D01*
X199664285Y-105842857D01*
X199578571Y-105871428D01*
X199435714Y-105871428D01*
X200150000Y-105271428D02*
X200264285Y-105271428D01*
X200321428Y-105300000D01*
X200378571Y-105357142D01*
X200407142Y-105471428D01*
X200407142Y-105671428D01*
X200378571Y-105785714D01*
X200321428Y-105842857D01*
X200264285Y-105871428D01*
X200150000Y-105871428D01*
X200092857Y-105842857D01*
X200035714Y-105785714D01*
X200007142Y-105671428D01*
X200007142Y-105471428D01*
X200035714Y-105357142D01*
X200092857Y-105300000D01*
X200150000Y-105271428D01*
X200778571Y-105271428D02*
X200892857Y-105271428D01*
X200950000Y-105300000D01*
X201007142Y-105357142D01*
X201035714Y-105471428D01*
X201035714Y-105671428D01*
X201007142Y-105785714D01*
X200950000Y-105842857D01*
X200892857Y-105871428D01*
X200778571Y-105871428D01*
X200721428Y-105842857D01*
X200664285Y-105785714D01*
X200635714Y-105671428D01*
X200635714Y-105471428D01*
X200664285Y-105357142D01*
X200721428Y-105300000D01*
X200778571Y-105271428D01*
X201635714Y-105871428D02*
X201435714Y-105585714D01*
X201292857Y-105871428D02*
X201292857Y-105271428D01*
X201521428Y-105271428D01*
X201578571Y-105300000D01*
X201607142Y-105328571D01*
X201635714Y-105385714D01*
X201635714Y-105471428D01*
X201607142Y-105528571D01*
X201578571Y-105557142D01*
X201521428Y-105585714D01*
X201292857Y-105585714D01*
X202178571Y-105871428D02*
X201892857Y-105871428D01*
X201892857Y-105271428D01*
X202378571Y-105871428D02*
X202378571Y-105271428D01*
X202978571Y-105300000D02*
X202921428Y-105271428D01*
X202835714Y-105271428D01*
X202750000Y-105300000D01*
X202692857Y-105357142D01*
X202664285Y-105414285D01*
X202635714Y-105528571D01*
X202635714Y-105614285D01*
X202664285Y-105728571D01*
X202692857Y-105785714D01*
X202750000Y-105842857D01*
X202835714Y-105871428D01*
X202892857Y-105871428D01*
X202978571Y-105842857D01*
X203007142Y-105814285D01*
X203007142Y-105614285D01*
X202892857Y-105614285D01*
X203264285Y-105871428D02*
X203264285Y-105271428D01*
X203264285Y-105557142D02*
X203607142Y-105557142D01*
X203607142Y-105871428D02*
X203607142Y-105271428D01*
X203807142Y-105271428D02*
X204150000Y-105271428D01*
X203978571Y-105871428D02*
X203978571Y-105271428D01*
X204692857Y-105814285D02*
X204664285Y-105842857D01*
X204578571Y-105871428D01*
X204521428Y-105871428D01*
X204435714Y-105842857D01*
X204378571Y-105785714D01*
X204350000Y-105728571D01*
X204321428Y-105614285D01*
X204321428Y-105528571D01*
X204350000Y-105414285D01*
X204378571Y-105357142D01*
X204435714Y-105300000D01*
X204521428Y-105271428D01*
X204578571Y-105271428D01*
X204664285Y-105300000D01*
X204692857Y-105328571D01*
X205064285Y-105271428D02*
X205178571Y-105271428D01*
X205235714Y-105300000D01*
X205292857Y-105357142D01*
X205321428Y-105471428D01*
X205321428Y-105671428D01*
X205292857Y-105785714D01*
X205235714Y-105842857D01*
X205178571Y-105871428D01*
X205064285Y-105871428D01*
X205007142Y-105842857D01*
X204950000Y-105785714D01*
X204921428Y-105671428D01*
X204921428Y-105471428D01*
X204950000Y-105357142D01*
X205007142Y-105300000D01*
X205064285Y-105271428D01*
X205578571Y-105871428D02*
X205578571Y-105271428D01*
X205921428Y-105871428D01*
X205921428Y-105271428D01*
X206121428Y-105271428D02*
X206464285Y-105271428D01*
X206292857Y-105871428D02*
X206292857Y-105271428D01*
X207007142Y-105871428D02*
X206807142Y-105585714D01*
X206664285Y-105871428D02*
X206664285Y-105271428D01*
X206892857Y-105271428D01*
X206950000Y-105300000D01*
X206978571Y-105328571D01*
X207007142Y-105385714D01*
X207007142Y-105471428D01*
X206978571Y-105528571D01*
X206950000Y-105557142D01*
X206892857Y-105585714D01*
X206664285Y-105585714D01*
X207378571Y-105271428D02*
X207492857Y-105271428D01*
X207550000Y-105300000D01*
X207607142Y-105357142D01*
X207635714Y-105471428D01*
X207635714Y-105671428D01*
X207607142Y-105785714D01*
X207550000Y-105842857D01*
X207492857Y-105871428D01*
X207378571Y-105871428D01*
X207321428Y-105842857D01*
X207264285Y-105785714D01*
X207235714Y-105671428D01*
X207235714Y-105471428D01*
X207264285Y-105357142D01*
X207321428Y-105300000D01*
X207378571Y-105271428D01*
X208178571Y-105871428D02*
X207892857Y-105871428D01*
X207892857Y-105271428D01*
X208664285Y-105871428D02*
X208378571Y-105871428D01*
X208378571Y-105271428D01*
X208864285Y-105557142D02*
X209064285Y-105557142D01*
X209150000Y-105871428D02*
X208864285Y-105871428D01*
X208864285Y-105271428D01*
X209150000Y-105271428D01*
X209750000Y-105871428D02*
X209550000Y-105585714D01*
X209407142Y-105871428D02*
X209407142Y-105271428D01*
X209635714Y-105271428D01*
X209692857Y-105300000D01*
X209721428Y-105328571D01*
X209750000Y-105385714D01*
X209750000Y-105471428D01*
X209721428Y-105528571D01*
X209692857Y-105557142D01*
X209635714Y-105585714D01*
X209407142Y-105585714D01*
X210378571Y-105271428D02*
X210578571Y-105871428D01*
X210778571Y-105271428D01*
X211092857Y-105271428D02*
X211150000Y-105271428D01*
X211207142Y-105300000D01*
X211235714Y-105328571D01*
X211264285Y-105385714D01*
X211292857Y-105500000D01*
X211292857Y-105642857D01*
X211264285Y-105757142D01*
X211235714Y-105814285D01*
X211207142Y-105842857D01*
X211150000Y-105871428D01*
X211092857Y-105871428D01*
X211035714Y-105842857D01*
X211007142Y-105814285D01*
X210978571Y-105757142D01*
X210950000Y-105642857D01*
X210950000Y-105500000D01*
X210978571Y-105385714D01*
X211007142Y-105328571D01*
X211035714Y-105300000D01*
X211092857Y-105271428D01*
X211550000Y-105814285D02*
X211578571Y-105842857D01*
X211550000Y-105871428D01*
X211521428Y-105842857D01*
X211550000Y-105814285D01*
X211550000Y-105871428D01*
X212150000Y-105871428D02*
X211807142Y-105871428D01*
X211978571Y-105871428D02*
X211978571Y-105271428D01*
X211921428Y-105357142D01*
X211864285Y-105414285D01*
X211807142Y-105442857D01*
D11*
%TO.C,J3*%
X193012500Y-90600000D02*
X193012500Y-91050000D01*
X191162500Y-90600000D02*
X193012500Y-90600000D01*
X188612500Y-98400000D02*
X188862500Y-98400000D01*
X188612500Y-90600000D02*
X188862500Y-90600000D01*
X191162500Y-98400000D02*
X193012500Y-98400000D01*
X193012500Y-98400000D02*
X193012500Y-97950000D01*
X193562500Y-92800000D02*
X193562500Y-93250000D01*
X193562500Y-92800000D02*
X193112500Y-92800000D01*
%TO.C,SW1*%
X193650000Y-66850000D02*
X193650000Y-66200000D01*
X193650000Y-63150000D02*
X193650000Y-63800000D01*
X199850000Y-63800000D02*
X199850000Y-63150000D01*
X199850000Y-66850000D02*
X199850000Y-66200000D01*
X193650000Y-66850000D02*
X199850000Y-66850000D01*
X199850000Y-63150000D02*
X193650000Y-63150000D01*
%TO.C,R18*%
X195758578Y-68960000D02*
X195241422Y-68960000D01*
X195758578Y-67540000D02*
X195241422Y-67540000D01*
%TO.C,R17*%
X192258578Y-67540000D02*
X191741422Y-67540000D01*
X192258578Y-68960000D02*
X191741422Y-68960000D01*
%TO.C,L1*%
X224120000Y-91500000D02*
X224120000Y-94120000D01*
X224120000Y-81880000D02*
X224120000Y-84500000D01*
X211880000Y-81880000D02*
X211880000Y-84500000D01*
X211880000Y-81880000D02*
X224120000Y-81880000D01*
X211880000Y-91500000D02*
X211880000Y-94120000D01*
X211880000Y-94120000D02*
X224120000Y-94120000D01*
%TO.C,D3*%
X198540000Y-60000000D02*
X198540000Y-62685000D01*
X198540000Y-62685000D02*
X200460000Y-62685000D01*
X200460000Y-62685000D02*
X200460000Y-60000000D01*
%TO.C,D2*%
X196290000Y-60000000D02*
X196290000Y-62685000D01*
X196290000Y-62685000D02*
X198210000Y-62685000D01*
X198210000Y-62685000D02*
X198210000Y-60000000D01*
%TO.C,D1*%
X211200000Y-94500000D02*
X211200000Y-92500000D01*
X211200000Y-92500000D02*
X207350000Y-92500000D01*
X211200000Y-94500000D02*
X207350000Y-94500000D01*
%TO.C,C2*%
X210270000Y-88500000D02*
G75*
G03*
X210270000Y-88500000I-3270000J0D01*
G01*
X207000000Y-91730000D02*
X207000000Y-85270000D01*
X206960000Y-91730000D02*
X206960000Y-85270000D01*
X206920000Y-91730000D02*
X206920000Y-85270000D01*
X206880000Y-91728000D02*
X206880000Y-85272000D01*
X206840000Y-91727000D02*
X206840000Y-85273000D01*
X206800000Y-91724000D02*
X206800000Y-85276000D01*
X206760000Y-91722000D02*
X206760000Y-89540000D01*
X206760000Y-87460000D02*
X206760000Y-85278000D01*
X206720000Y-91718000D02*
X206720000Y-89540000D01*
X206720000Y-87460000D02*
X206720000Y-85282000D01*
X206680000Y-91715000D02*
X206680000Y-89540000D01*
X206680000Y-87460000D02*
X206680000Y-85285000D01*
X206640000Y-91711000D02*
X206640000Y-89540000D01*
X206640000Y-87460000D02*
X206640000Y-85289000D01*
X206600000Y-91706000D02*
X206600000Y-89540000D01*
X206600000Y-87460000D02*
X206600000Y-85294000D01*
X206560000Y-91701000D02*
X206560000Y-89540000D01*
X206560000Y-87460000D02*
X206560000Y-85299000D01*
X206520000Y-91695000D02*
X206520000Y-89540000D01*
X206520000Y-87460000D02*
X206520000Y-85305000D01*
X206480000Y-91689000D02*
X206480000Y-89540000D01*
X206480000Y-87460000D02*
X206480000Y-85311000D01*
X206440000Y-91682000D02*
X206440000Y-89540000D01*
X206440000Y-87460000D02*
X206440000Y-85318000D01*
X206400000Y-91675000D02*
X206400000Y-89540000D01*
X206400000Y-87460000D02*
X206400000Y-85325000D01*
X206360000Y-91667000D02*
X206360000Y-89540000D01*
X206360000Y-87460000D02*
X206360000Y-85333000D01*
X206320000Y-91659000D02*
X206320000Y-89540000D01*
X206320000Y-87460000D02*
X206320000Y-85341000D01*
X206279000Y-91650000D02*
X206279000Y-89540000D01*
X206279000Y-87460000D02*
X206279000Y-85350000D01*
X206239000Y-91641000D02*
X206239000Y-89540000D01*
X206239000Y-87460000D02*
X206239000Y-85359000D01*
X206199000Y-91631000D02*
X206199000Y-89540000D01*
X206199000Y-87460000D02*
X206199000Y-85369000D01*
X206159000Y-91621000D02*
X206159000Y-89540000D01*
X206159000Y-87460000D02*
X206159000Y-85379000D01*
X206119000Y-91610000D02*
X206119000Y-89540000D01*
X206119000Y-87460000D02*
X206119000Y-85390000D01*
X206079000Y-91598000D02*
X206079000Y-89540000D01*
X206079000Y-87460000D02*
X206079000Y-85402000D01*
X206039000Y-91586000D02*
X206039000Y-89540000D01*
X206039000Y-87460000D02*
X206039000Y-85414000D01*
X205999000Y-91574000D02*
X205999000Y-89540000D01*
X205999000Y-87460000D02*
X205999000Y-85426000D01*
X205959000Y-91561000D02*
X205959000Y-89540000D01*
X205959000Y-87460000D02*
X205959000Y-85439000D01*
X205919000Y-91547000D02*
X205919000Y-89540000D01*
X205919000Y-87460000D02*
X205919000Y-85453000D01*
X205879000Y-91533000D02*
X205879000Y-89540000D01*
X205879000Y-87460000D02*
X205879000Y-85467000D01*
X205839000Y-91518000D02*
X205839000Y-89540000D01*
X205839000Y-87460000D02*
X205839000Y-85482000D01*
X205799000Y-91502000D02*
X205799000Y-89540000D01*
X205799000Y-87460000D02*
X205799000Y-85498000D01*
X205759000Y-91486000D02*
X205759000Y-89540000D01*
X205759000Y-87460000D02*
X205759000Y-85514000D01*
X205719000Y-91470000D02*
X205719000Y-89540000D01*
X205719000Y-87460000D02*
X205719000Y-85530000D01*
X205679000Y-91452000D02*
X205679000Y-89540000D01*
X205679000Y-87460000D02*
X205679000Y-85548000D01*
X205639000Y-91434000D02*
X205639000Y-89540000D01*
X205639000Y-87460000D02*
X205639000Y-85566000D01*
X205599000Y-91416000D02*
X205599000Y-89540000D01*
X205599000Y-87460000D02*
X205599000Y-85584000D01*
X205559000Y-91396000D02*
X205559000Y-89540000D01*
X205559000Y-87460000D02*
X205559000Y-85604000D01*
X205519000Y-91376000D02*
X205519000Y-89540000D01*
X205519000Y-87460000D02*
X205519000Y-85624000D01*
X205479000Y-91356000D02*
X205479000Y-89540000D01*
X205479000Y-87460000D02*
X205479000Y-85644000D01*
X205439000Y-91334000D02*
X205439000Y-89540000D01*
X205439000Y-87460000D02*
X205439000Y-85666000D01*
X205399000Y-91312000D02*
X205399000Y-89540000D01*
X205399000Y-87460000D02*
X205399000Y-85688000D01*
X205359000Y-91290000D02*
X205359000Y-89540000D01*
X205359000Y-87460000D02*
X205359000Y-85710000D01*
X205319000Y-91266000D02*
X205319000Y-89540000D01*
X205319000Y-87460000D02*
X205319000Y-85734000D01*
X205279000Y-91242000D02*
X205279000Y-89540000D01*
X205279000Y-87460000D02*
X205279000Y-85758000D01*
X205239000Y-91216000D02*
X205239000Y-89540000D01*
X205239000Y-87460000D02*
X205239000Y-85784000D01*
X205199000Y-91190000D02*
X205199000Y-89540000D01*
X205199000Y-87460000D02*
X205199000Y-85810000D01*
X205159000Y-91164000D02*
X205159000Y-89540000D01*
X205159000Y-87460000D02*
X205159000Y-85836000D01*
X205119000Y-91136000D02*
X205119000Y-89540000D01*
X205119000Y-87460000D02*
X205119000Y-85864000D01*
X205079000Y-91107000D02*
X205079000Y-89540000D01*
X205079000Y-87460000D02*
X205079000Y-85893000D01*
X205039000Y-91078000D02*
X205039000Y-89540000D01*
X205039000Y-87460000D02*
X205039000Y-85922000D01*
X204999000Y-91048000D02*
X204999000Y-89540000D01*
X204999000Y-87460000D02*
X204999000Y-85952000D01*
X204959000Y-91016000D02*
X204959000Y-89540000D01*
X204959000Y-87460000D02*
X204959000Y-85984000D01*
X204919000Y-90984000D02*
X204919000Y-89540000D01*
X204919000Y-87460000D02*
X204919000Y-86016000D01*
X204879000Y-90950000D02*
X204879000Y-89540000D01*
X204879000Y-87460000D02*
X204879000Y-86050000D01*
X204839000Y-90916000D02*
X204839000Y-89540000D01*
X204839000Y-87460000D02*
X204839000Y-86084000D01*
X204799000Y-90880000D02*
X204799000Y-89540000D01*
X204799000Y-87460000D02*
X204799000Y-86120000D01*
X204759000Y-90843000D02*
X204759000Y-89540000D01*
X204759000Y-87460000D02*
X204759000Y-86157000D01*
X204719000Y-90805000D02*
X204719000Y-89540000D01*
X204719000Y-87460000D02*
X204719000Y-86195000D01*
X204679000Y-90765000D02*
X204679000Y-86235000D01*
X204639000Y-90724000D02*
X204639000Y-86276000D01*
X204599000Y-90682000D02*
X204599000Y-86318000D01*
X204559000Y-90637000D02*
X204559000Y-86363000D01*
X204519000Y-90592000D02*
X204519000Y-86408000D01*
X204479000Y-90544000D02*
X204479000Y-86456000D01*
X204439000Y-90495000D02*
X204439000Y-86505000D01*
X204399000Y-90444000D02*
X204399000Y-86556000D01*
X204359000Y-90390000D02*
X204359000Y-86610000D01*
X204319000Y-90334000D02*
X204319000Y-86666000D01*
X204279000Y-90276000D02*
X204279000Y-86724000D01*
X204239000Y-90214000D02*
X204239000Y-86786000D01*
X204199000Y-90150000D02*
X204199000Y-86850000D01*
X204159000Y-90081000D02*
X204159000Y-86919000D01*
X204119000Y-90009000D02*
X204119000Y-86991000D01*
X204079000Y-89932000D02*
X204079000Y-87068000D01*
X204039000Y-89850000D02*
X204039000Y-87150000D01*
X203999000Y-89762000D02*
X203999000Y-87238000D01*
X203959000Y-89665000D02*
X203959000Y-87335000D01*
X203919000Y-89559000D02*
X203919000Y-87441000D01*
X203879000Y-89440000D02*
X203879000Y-87560000D01*
X203839000Y-89302000D02*
X203839000Y-87698000D01*
X203799000Y-89133000D02*
X203799000Y-87867000D01*
X203759000Y-88902000D02*
X203759000Y-88098000D01*
X210500241Y-90339000D02*
X209870241Y-90339000D01*
X210185241Y-90654000D02*
X210185241Y-90024000D01*
%TO.C,C1*%
X206370000Y-99500000D02*
G75*
G03*
X206370000Y-99500000I-5120000J0D01*
G01*
X201250000Y-104580000D02*
X201250000Y-94420000D01*
X201210000Y-104580000D02*
X201210000Y-94420000D01*
X201170000Y-104580000D02*
X201170000Y-94420000D01*
X201130000Y-104579000D02*
X201130000Y-94421000D01*
X201090000Y-104578000D02*
X201090000Y-94422000D01*
X201050000Y-104577000D02*
X201050000Y-94423000D01*
X201010000Y-104575000D02*
X201010000Y-100540000D01*
X201010000Y-98460000D02*
X201010000Y-94425000D01*
X200970000Y-104573000D02*
X200970000Y-100540000D01*
X200970000Y-98460000D02*
X200970000Y-94427000D01*
X200930000Y-104570000D02*
X200930000Y-100540000D01*
X200930000Y-98460000D02*
X200930000Y-94430000D01*
X200890000Y-104568000D02*
X200890000Y-100540000D01*
X200890000Y-98460000D02*
X200890000Y-94432000D01*
X200850000Y-104565000D02*
X200850000Y-100540000D01*
X200850000Y-98460000D02*
X200850000Y-94435000D01*
X200810000Y-104562000D02*
X200810000Y-100540000D01*
X200810000Y-98460000D02*
X200810000Y-94438000D01*
X200770000Y-104558000D02*
X200770000Y-100540000D01*
X200770000Y-98460000D02*
X200770000Y-94442000D01*
X200730000Y-104554000D02*
X200730000Y-100540000D01*
X200730000Y-98460000D02*
X200730000Y-94446000D01*
X200690000Y-104550000D02*
X200690000Y-100540000D01*
X200690000Y-98460000D02*
X200690000Y-94450000D01*
X200650000Y-104545000D02*
X200650000Y-100540000D01*
X200650000Y-98460000D02*
X200650000Y-94455000D01*
X200610000Y-104540000D02*
X200610000Y-100540000D01*
X200610000Y-98460000D02*
X200610000Y-94460000D01*
X200570000Y-104535000D02*
X200570000Y-100540000D01*
X200570000Y-98460000D02*
X200570000Y-94465000D01*
X200529000Y-104530000D02*
X200529000Y-100540000D01*
X200529000Y-98460000D02*
X200529000Y-94470000D01*
X200489000Y-104524000D02*
X200489000Y-100540000D01*
X200489000Y-98460000D02*
X200489000Y-94476000D01*
X200449000Y-104518000D02*
X200449000Y-100540000D01*
X200449000Y-98460000D02*
X200449000Y-94482000D01*
X200409000Y-104511000D02*
X200409000Y-100540000D01*
X200409000Y-98460000D02*
X200409000Y-94489000D01*
X200369000Y-104504000D02*
X200369000Y-100540000D01*
X200369000Y-98460000D02*
X200369000Y-94496000D01*
X200329000Y-104497000D02*
X200329000Y-100540000D01*
X200329000Y-98460000D02*
X200329000Y-94503000D01*
X200289000Y-104490000D02*
X200289000Y-100540000D01*
X200289000Y-98460000D02*
X200289000Y-94510000D01*
X200249000Y-104482000D02*
X200249000Y-100540000D01*
X200249000Y-98460000D02*
X200249000Y-94518000D01*
X200209000Y-104474000D02*
X200209000Y-100540000D01*
X200209000Y-98460000D02*
X200209000Y-94526000D01*
X200169000Y-104465000D02*
X200169000Y-100540000D01*
X200169000Y-98460000D02*
X200169000Y-94535000D01*
X200129000Y-104456000D02*
X200129000Y-100540000D01*
X200129000Y-98460000D02*
X200129000Y-94544000D01*
X200089000Y-104447000D02*
X200089000Y-100540000D01*
X200089000Y-98460000D02*
X200089000Y-94553000D01*
X200049000Y-104438000D02*
X200049000Y-100540000D01*
X200049000Y-98460000D02*
X200049000Y-94562000D01*
X200009000Y-104428000D02*
X200009000Y-100540000D01*
X200009000Y-98460000D02*
X200009000Y-94572000D01*
X199969000Y-104418000D02*
X199969000Y-100540000D01*
X199969000Y-98460000D02*
X199969000Y-94582000D01*
X199929000Y-104407000D02*
X199929000Y-100540000D01*
X199929000Y-98460000D02*
X199929000Y-94593000D01*
X199889000Y-104397000D02*
X199889000Y-100540000D01*
X199889000Y-98460000D02*
X199889000Y-94603000D01*
X199849000Y-104385000D02*
X199849000Y-100540000D01*
X199849000Y-98460000D02*
X199849000Y-94615000D01*
X199809000Y-104374000D02*
X199809000Y-100540000D01*
X199809000Y-98460000D02*
X199809000Y-94626000D01*
X199769000Y-104362000D02*
X199769000Y-100540000D01*
X199769000Y-98460000D02*
X199769000Y-94638000D01*
X199729000Y-104350000D02*
X199729000Y-100540000D01*
X199729000Y-98460000D02*
X199729000Y-94650000D01*
X199689000Y-104337000D02*
X199689000Y-100540000D01*
X199689000Y-98460000D02*
X199689000Y-94663000D01*
X199649000Y-104324000D02*
X199649000Y-100540000D01*
X199649000Y-98460000D02*
X199649000Y-94676000D01*
X199609000Y-104311000D02*
X199609000Y-100540000D01*
X199609000Y-98460000D02*
X199609000Y-94689000D01*
X199569000Y-104297000D02*
X199569000Y-100540000D01*
X199569000Y-98460000D02*
X199569000Y-94703000D01*
X199529000Y-104283000D02*
X199529000Y-100540000D01*
X199529000Y-98460000D02*
X199529000Y-94717000D01*
X199489000Y-104268000D02*
X199489000Y-100540000D01*
X199489000Y-98460000D02*
X199489000Y-94732000D01*
X199449000Y-104254000D02*
X199449000Y-100540000D01*
X199449000Y-98460000D02*
X199449000Y-94746000D01*
X199409000Y-104238000D02*
X199409000Y-100540000D01*
X199409000Y-98460000D02*
X199409000Y-94762000D01*
X199369000Y-104223000D02*
X199369000Y-100540000D01*
X199369000Y-98460000D02*
X199369000Y-94777000D01*
X199329000Y-104207000D02*
X199329000Y-100540000D01*
X199329000Y-98460000D02*
X199329000Y-94793000D01*
X199289000Y-104190000D02*
X199289000Y-100540000D01*
X199289000Y-98460000D02*
X199289000Y-94810000D01*
X199249000Y-104174000D02*
X199249000Y-100540000D01*
X199249000Y-98460000D02*
X199249000Y-94826000D01*
X199209000Y-104157000D02*
X199209000Y-100540000D01*
X199209000Y-98460000D02*
X199209000Y-94843000D01*
X199169000Y-104139000D02*
X199169000Y-100540000D01*
X199169000Y-98460000D02*
X199169000Y-94861000D01*
X199129000Y-104121000D02*
X199129000Y-100540000D01*
X199129000Y-98460000D02*
X199129000Y-94879000D01*
X199089000Y-104103000D02*
X199089000Y-100540000D01*
X199089000Y-98460000D02*
X199089000Y-94897000D01*
X199049000Y-104084000D02*
X199049000Y-100540000D01*
X199049000Y-98460000D02*
X199049000Y-94916000D01*
X199009000Y-104064000D02*
X199009000Y-100540000D01*
X199009000Y-98460000D02*
X199009000Y-94936000D01*
X198969000Y-104045000D02*
X198969000Y-100540000D01*
X198969000Y-98460000D02*
X198969000Y-94955000D01*
X198929000Y-104025000D02*
X198929000Y-94975000D01*
X198889000Y-104004000D02*
X198889000Y-94996000D01*
X198849000Y-103983000D02*
X198849000Y-95017000D01*
X198809000Y-103962000D02*
X198809000Y-95038000D01*
X198769000Y-103940000D02*
X198769000Y-95060000D01*
X198729000Y-103917000D02*
X198729000Y-95083000D01*
X198689000Y-103895000D02*
X198689000Y-95105000D01*
X198649000Y-103871000D02*
X198649000Y-95129000D01*
X198609000Y-103847000D02*
X198609000Y-95153000D01*
X198569000Y-103823000D02*
X198569000Y-95177000D01*
X198529000Y-103798000D02*
X198529000Y-95202000D01*
X198489000Y-103773000D02*
X198489000Y-95227000D01*
X198449000Y-103747000D02*
X198449000Y-95253000D01*
X198409000Y-103721000D02*
X198409000Y-95279000D01*
X198369000Y-103694000D02*
X198369000Y-95306000D01*
X198329000Y-103666000D02*
X198329000Y-95334000D01*
X198289000Y-103638000D02*
X198289000Y-95362000D01*
X198249000Y-103610000D02*
X198249000Y-95390000D01*
X198209000Y-103580000D02*
X198209000Y-95420000D01*
X198169000Y-103550000D02*
X198169000Y-95450000D01*
X198129000Y-103520000D02*
X198129000Y-95480000D01*
X198089000Y-103489000D02*
X198089000Y-95511000D01*
X198049000Y-103457000D02*
X198049000Y-95543000D01*
X198009000Y-103425000D02*
X198009000Y-95575000D01*
X197969000Y-103392000D02*
X197969000Y-95608000D01*
X197929000Y-103358000D02*
X197929000Y-95642000D01*
X197889000Y-103324000D02*
X197889000Y-95676000D01*
X197849000Y-103289000D02*
X197849000Y-95711000D01*
X197809000Y-103253000D02*
X197809000Y-95747000D01*
X197769000Y-103216000D02*
X197769000Y-95784000D01*
X197729000Y-103179000D02*
X197729000Y-95821000D01*
X197689000Y-103140000D02*
X197689000Y-95860000D01*
X197649000Y-103101000D02*
X197649000Y-95899000D01*
X197609000Y-103061000D02*
X197609000Y-95939000D01*
X197569000Y-103020000D02*
X197569000Y-95980000D01*
X197529000Y-102978000D02*
X197529000Y-96022000D01*
X197489000Y-102936000D02*
X197489000Y-96064000D01*
X197449000Y-102892000D02*
X197449000Y-96108000D01*
X197409000Y-102847000D02*
X197409000Y-96153000D01*
X197369000Y-102801000D02*
X197369000Y-96199000D01*
X197329000Y-102754000D02*
X197329000Y-96246000D01*
X197289000Y-102706000D02*
X197289000Y-96294000D01*
X197249000Y-102656000D02*
X197249000Y-96344000D01*
X197209000Y-102606000D02*
X197209000Y-96394000D01*
X197169000Y-102554000D02*
X197169000Y-96446000D01*
X197129000Y-102500000D02*
X197129000Y-96500000D01*
X197089000Y-102445000D02*
X197089000Y-96555000D01*
X197049000Y-102389000D02*
X197049000Y-96611000D01*
X197009000Y-102330000D02*
X197009000Y-96670000D01*
X196969000Y-102270000D02*
X196969000Y-96730000D01*
X196929000Y-102209000D02*
X196929000Y-96791000D01*
X196889000Y-102145000D02*
X196889000Y-96855000D01*
X196849000Y-102079000D02*
X196849000Y-96921000D01*
X196809000Y-102010000D02*
X196809000Y-96990000D01*
X196769000Y-101939000D02*
X196769000Y-97061000D01*
X196729000Y-101865000D02*
X196729000Y-97135000D01*
X196689000Y-101789000D02*
X196689000Y-97211000D01*
X196649000Y-101709000D02*
X196649000Y-97291000D01*
X196609000Y-101625000D02*
X196609000Y-97375000D01*
X196569000Y-101537000D02*
X196569000Y-97463000D01*
X196529000Y-101444000D02*
X196529000Y-97556000D01*
X196489000Y-101346000D02*
X196489000Y-97654000D01*
X196449000Y-101242000D02*
X196449000Y-97758000D01*
X196409000Y-101130000D02*
X196409000Y-97870000D01*
X196369000Y-101010000D02*
X196369000Y-97990000D01*
X196329000Y-100878000D02*
X196329000Y-98122000D01*
X196289000Y-100730000D02*
X196289000Y-98270000D01*
X196249000Y-100562000D02*
X196249000Y-98438000D01*
X196209000Y-100362000D02*
X196209000Y-98638000D01*
X196169000Y-100099000D02*
X196169000Y-98901000D01*
X206729646Y-102375000D02*
X205729646Y-102375000D01*
X206229646Y-102875000D02*
X206229646Y-101875000D01*
%TO.C,U2*%
X201880000Y-55880000D02*
X218120000Y-55880000D01*
X218120000Y-55880000D02*
X218120000Y-63500000D01*
X218120000Y-79500000D02*
X218120000Y-80120000D01*
X218120000Y-80120000D02*
X216000000Y-80120000D01*
X204000000Y-80120000D02*
X201880000Y-80120000D01*
X201880000Y-80120000D02*
X201880000Y-79500000D01*
X201880000Y-63500000D02*
X201880000Y-55880000D01*
X201880000Y-63500000D02*
X201270000Y-63500000D01*
%TO.C,C3*%
X201040000Y-82741422D02*
X201040000Y-83258578D01*
X202460000Y-82741422D02*
X202460000Y-83258578D01*
%TO.C,C4*%
X190290000Y-88258578D02*
X190290000Y-87741422D01*
X191710000Y-88258578D02*
X191710000Y-87741422D01*
%TO.C,C5*%
X192290000Y-87741422D02*
X192290000Y-88258578D01*
X193710000Y-87741422D02*
X193710000Y-88258578D01*
%TO.C,J1*%
X230960000Y-90940000D02*
X224990000Y-90940000D01*
X224990000Y-90940000D02*
X224990000Y-98560000D01*
X224990000Y-98560000D02*
X230960000Y-98560000D01*
X230960000Y-98560000D02*
X230960000Y-90940000D01*
X230950000Y-94250000D02*
X230200000Y-94250000D01*
X230200000Y-94250000D02*
X230200000Y-95250000D01*
X230200000Y-95250000D02*
X230950000Y-95250000D01*
X230950000Y-95250000D02*
X230950000Y-94250000D01*
X230950000Y-90950000D02*
X230200000Y-90950000D01*
X230200000Y-90950000D02*
X230200000Y-92750000D01*
X230200000Y-92750000D02*
X230950000Y-92750000D01*
X230950000Y-92750000D02*
X230950000Y-90950000D01*
X230950000Y-96750000D02*
X230200000Y-96750000D01*
X230200000Y-96750000D02*
X230200000Y-98550000D01*
X230200000Y-98550000D02*
X230950000Y-98550000D01*
X230950000Y-98550000D02*
X230950000Y-96750000D01*
X228700000Y-90950000D02*
X228700000Y-91700000D01*
X228700000Y-91700000D02*
X225750000Y-91700000D01*
X225750000Y-91700000D02*
X225750000Y-94750000D01*
X228700000Y-98550000D02*
X228700000Y-97800000D01*
X228700000Y-97800000D02*
X225750000Y-97800000D01*
X225750000Y-97800000D02*
X225750000Y-94750000D01*
X231250000Y-91900000D02*
X231250000Y-90650000D01*
X231250000Y-90650000D02*
X230000000Y-90650000D01*
%TO.C,J2*%
X210910000Y-84330000D02*
X210910000Y-81670000D01*
X205770000Y-84330000D02*
X210910000Y-84330000D01*
X205770000Y-81670000D02*
X210910000Y-81670000D01*
X205770000Y-84330000D02*
X205770000Y-81670000D01*
X204500000Y-84330000D02*
X203170000Y-84330000D01*
X203170000Y-84330000D02*
X203170000Y-83000000D01*
%TO.C,J5*%
X230960000Y-77440000D02*
X224990000Y-77440000D01*
X224990000Y-77440000D02*
X224990000Y-90060000D01*
X224990000Y-90060000D02*
X230960000Y-90060000D01*
X230960000Y-90060000D02*
X230960000Y-77440000D01*
X230950000Y-80750000D02*
X230200000Y-80750000D01*
X230200000Y-80750000D02*
X230200000Y-86750000D01*
X230200000Y-86750000D02*
X230950000Y-86750000D01*
X230950000Y-86750000D02*
X230950000Y-80750000D01*
X230950000Y-77450000D02*
X230200000Y-77450000D01*
X230200000Y-77450000D02*
X230200000Y-79250000D01*
X230200000Y-79250000D02*
X230950000Y-79250000D01*
X230950000Y-79250000D02*
X230950000Y-77450000D01*
X230950000Y-88250000D02*
X230200000Y-88250000D01*
X230200000Y-88250000D02*
X230200000Y-90050000D01*
X230200000Y-90050000D02*
X230950000Y-90050000D01*
X230950000Y-90050000D02*
X230950000Y-88250000D01*
X228700000Y-77450000D02*
X228700000Y-78200000D01*
X228700000Y-78200000D02*
X225750000Y-78200000D01*
X225750000Y-78200000D02*
X225750000Y-83750000D01*
X228700000Y-90050000D02*
X228700000Y-89300000D01*
X228700000Y-89300000D02*
X225750000Y-89300000D01*
X225750000Y-89300000D02*
X225750000Y-83750000D01*
X231250000Y-78400000D02*
X231250000Y-77150000D01*
X231250000Y-77150000D02*
X230000000Y-77150000D01*
%TO.C,Q1*%
X197080000Y-70740000D02*
X196150000Y-70740000D01*
X193920000Y-70740000D02*
X194850000Y-70740000D01*
X193920000Y-70740000D02*
X193920000Y-72900000D01*
X197080000Y-70740000D02*
X197080000Y-72200000D01*
%TO.C,Q2*%
X193080000Y-70740000D02*
X192150000Y-70740000D01*
X189920000Y-70740000D02*
X190850000Y-70740000D01*
X189920000Y-70740000D02*
X189920000Y-72900000D01*
X193080000Y-70740000D02*
X193080000Y-72200000D01*
%TO.C,Q3*%
X222240000Y-67920000D02*
X222240000Y-68850000D01*
X222240000Y-71080000D02*
X222240000Y-70150000D01*
X222240000Y-71080000D02*
X224400000Y-71080000D01*
X222240000Y-67920000D02*
X223700000Y-67920000D01*
%TO.C,Q4*%
X220740000Y-64170000D02*
X222200000Y-64170000D01*
X220740000Y-67330000D02*
X222900000Y-67330000D01*
X220740000Y-67330000D02*
X220740000Y-66400000D01*
X220740000Y-64170000D02*
X220740000Y-65100000D01*
%TO.C,Q5*%
X222240000Y-73420000D02*
X222240000Y-74350000D01*
X222240000Y-76580000D02*
X222240000Y-75650000D01*
X222240000Y-76580000D02*
X224400000Y-76580000D01*
X222240000Y-73420000D02*
X223700000Y-73420000D01*
%TO.C,Q6*%
X225740000Y-67920000D02*
X227200000Y-67920000D01*
X225740000Y-71080000D02*
X227900000Y-71080000D01*
X225740000Y-71080000D02*
X225740000Y-70150000D01*
X225740000Y-67920000D02*
X225740000Y-68850000D01*
%TO.C,Q7*%
X224240000Y-64170000D02*
X225700000Y-64170000D01*
X224240000Y-67330000D02*
X226400000Y-67330000D01*
X224240000Y-67330000D02*
X224240000Y-66400000D01*
X224240000Y-64170000D02*
X224240000Y-65100000D01*
%TO.C,Q8*%
X225740000Y-73420000D02*
X227200000Y-73420000D01*
X225740000Y-76580000D02*
X227900000Y-76580000D01*
X225740000Y-76580000D02*
X225740000Y-75650000D01*
X225740000Y-73420000D02*
X225740000Y-74350000D01*
%TO.C,R1*%
X202210000Y-89258578D02*
X202210000Y-88741422D01*
X200790000Y-89258578D02*
X200790000Y-88741422D01*
%TO.C,R2*%
X191241422Y-75210000D02*
X191758578Y-75210000D01*
X191241422Y-73790000D02*
X191758578Y-73790000D01*
%TO.C,R3*%
X200460000Y-72803922D02*
X200460000Y-73321078D01*
X199040000Y-72803922D02*
X199040000Y-73321078D01*
%TO.C,R4*%
X221241422Y-78710000D02*
X221758578Y-78710000D01*
X221241422Y-77290000D02*
X221758578Y-77290000D01*
%TO.C,R5*%
X221758578Y-80710000D02*
X221241422Y-80710000D01*
X221758578Y-79290000D02*
X221241422Y-79290000D01*
%TO.C,R6*%
X195758578Y-75210000D02*
X195241422Y-75210000D01*
X195758578Y-73790000D02*
X195241422Y-73790000D01*
%TO.C,R7*%
X200460000Y-69508578D02*
X200460000Y-68991422D01*
X199040000Y-69508578D02*
X199040000Y-68991422D01*
%TO.C,R8*%
X220960000Y-69241422D02*
X220960000Y-69758578D01*
X219540000Y-69241422D02*
X219540000Y-69758578D01*
%TO.C,R9*%
X221241422Y-63460000D02*
X221758578Y-63460000D01*
X221241422Y-62040000D02*
X221758578Y-62040000D01*
%TO.C,R10*%
X220960000Y-74741422D02*
X220960000Y-75258578D01*
X219540000Y-74741422D02*
X219540000Y-75258578D01*
%TO.C,R11*%
X229960000Y-69758578D02*
X229960000Y-69241422D01*
X228540000Y-69758578D02*
X228540000Y-69241422D01*
%TO.C,R12*%
X224678922Y-62040000D02*
X225196078Y-62040000D01*
X224678922Y-63460000D02*
X225196078Y-63460000D01*
%TO.C,R13*%
X229960000Y-75258578D02*
X229960000Y-74741422D01*
X228540000Y-75258578D02*
X228540000Y-74741422D01*
%TO.C,R14*%
X226758578Y-71540000D02*
X226241422Y-71540000D01*
X226758578Y-72960000D02*
X226241422Y-72960000D01*
%TO.C,R15*%
X221241422Y-60040000D02*
X221758578Y-60040000D01*
X221241422Y-61460000D02*
X221758578Y-61460000D01*
%TO.C,R16*%
X222741422Y-71540000D02*
X223258578Y-71540000D01*
X222741422Y-72960000D02*
X223258578Y-72960000D01*
%TO.C,U1*%
X214550000Y-95300000D02*
X213050000Y-95300000D01*
X213050000Y-95300000D02*
X213050000Y-96250000D01*
X213050000Y-96250000D02*
X207925000Y-96250000D01*
X214550000Y-105700000D02*
X213050000Y-105700000D01*
X213050000Y-105700000D02*
X213050000Y-104750000D01*
X213050000Y-104750000D02*
X211950000Y-104750000D01*
%TO.C,U3*%
X199135000Y-88390000D02*
X199610000Y-88390000D01*
X199610000Y-88390000D02*
X199610000Y-88865000D01*
X195865000Y-92610000D02*
X195390000Y-92610000D01*
X195390000Y-92610000D02*
X195390000Y-92135000D01*
X199135000Y-92610000D02*
X199610000Y-92610000D01*
X199610000Y-92610000D02*
X199610000Y-92135000D01*
X195865000Y-88390000D02*
X195390000Y-88390000D01*
%TO.C,J3*%
D10*
X193814880Y-94833333D02*
X194529166Y-94833333D01*
X194672023Y-94880952D01*
X194767261Y-94976190D01*
X194814880Y-95119047D01*
X194814880Y-95214285D01*
X193814880Y-94452380D02*
X193814880Y-93833333D01*
X194195833Y-94166666D01*
X194195833Y-94023809D01*
X194243452Y-93928571D01*
X194291071Y-93880952D01*
X194386309Y-93833333D01*
X194624404Y-93833333D01*
X194719642Y-93880952D01*
X194767261Y-93928571D01*
X194814880Y-94023809D01*
X194814880Y-94309523D01*
X194767261Y-94404761D01*
X194719642Y-94452380D01*
%TO.C,SW1*%
X195750000Y-65553571D02*
X195857142Y-65589285D01*
X196035714Y-65589285D01*
X196107142Y-65553571D01*
X196142857Y-65517857D01*
X196178571Y-65446428D01*
X196178571Y-65375000D01*
X196142857Y-65303571D01*
X196107142Y-65267857D01*
X196035714Y-65232142D01*
X195892857Y-65196428D01*
X195821428Y-65160714D01*
X195785714Y-65125000D01*
X195750000Y-65053571D01*
X195750000Y-64982142D01*
X195785714Y-64910714D01*
X195821428Y-64875000D01*
X195892857Y-64839285D01*
X196071428Y-64839285D01*
X196178571Y-64875000D01*
X196428571Y-64839285D02*
X196607142Y-65589285D01*
X196750000Y-65053571D01*
X196892857Y-65589285D01*
X197071428Y-64839285D01*
X197750000Y-65589285D02*
X197321428Y-65589285D01*
X197535714Y-65589285D02*
X197535714Y-64839285D01*
X197464285Y-64946428D01*
X197392857Y-65017857D01*
X197321428Y-65053571D01*
%TO.C,R18*%
X197839285Y-68732142D02*
X197482142Y-68982142D01*
X197839285Y-69160714D02*
X197089285Y-69160714D01*
X197089285Y-68875000D01*
X197125000Y-68803571D01*
X197160714Y-68767857D01*
X197232142Y-68732142D01*
X197339285Y-68732142D01*
X197410714Y-68767857D01*
X197446428Y-68803571D01*
X197482142Y-68875000D01*
X197482142Y-69160714D01*
X197839285Y-68017857D02*
X197839285Y-68446428D01*
X197839285Y-68232142D02*
X197089285Y-68232142D01*
X197196428Y-68303571D01*
X197267857Y-68375000D01*
X197303571Y-68446428D01*
X197410714Y-67589285D02*
X197375000Y-67660714D01*
X197339285Y-67696428D01*
X197267857Y-67732142D01*
X197232142Y-67732142D01*
X197160714Y-67696428D01*
X197125000Y-67660714D01*
X197089285Y-67589285D01*
X197089285Y-67446428D01*
X197125000Y-67375000D01*
X197160714Y-67339285D01*
X197232142Y-67303571D01*
X197267857Y-67303571D01*
X197339285Y-67339285D01*
X197375000Y-67375000D01*
X197410714Y-67446428D01*
X197410714Y-67589285D01*
X197446428Y-67660714D01*
X197482142Y-67696428D01*
X197553571Y-67732142D01*
X197696428Y-67732142D01*
X197767857Y-67696428D01*
X197803571Y-67660714D01*
X197839285Y-67589285D01*
X197839285Y-67446428D01*
X197803571Y-67375000D01*
X197767857Y-67339285D01*
X197696428Y-67303571D01*
X197553571Y-67303571D01*
X197482142Y-67339285D01*
X197446428Y-67375000D01*
X197410714Y-67446428D01*
%TO.C,R17*%
X191517857Y-67239285D02*
X191267857Y-66882142D01*
X191089285Y-67239285D02*
X191089285Y-66489285D01*
X191375000Y-66489285D01*
X191446428Y-66525000D01*
X191482142Y-66560714D01*
X191517857Y-66632142D01*
X191517857Y-66739285D01*
X191482142Y-66810714D01*
X191446428Y-66846428D01*
X191375000Y-66882142D01*
X191089285Y-66882142D01*
X192232142Y-67239285D02*
X191803571Y-67239285D01*
X192017857Y-67239285D02*
X192017857Y-66489285D01*
X191946428Y-66596428D01*
X191875000Y-66667857D01*
X191803571Y-66703571D01*
X192482142Y-66489285D02*
X192982142Y-66489285D01*
X192660714Y-67239285D01*
%TO.C,L1*%
X217925000Y-88389285D02*
X217567857Y-88389285D01*
X217567857Y-87639285D01*
X218567857Y-88389285D02*
X218139285Y-88389285D01*
X218353571Y-88389285D02*
X218353571Y-87639285D01*
X218282142Y-87746428D01*
X218210714Y-87817857D01*
X218139285Y-87853571D01*
%TO.C,D3*%
X198946428Y-59339285D02*
X198946428Y-58589285D01*
X199125000Y-58589285D01*
X199232142Y-58625000D01*
X199303571Y-58696428D01*
X199339285Y-58767857D01*
X199375000Y-58910714D01*
X199375000Y-59017857D01*
X199339285Y-59160714D01*
X199303571Y-59232142D01*
X199232142Y-59303571D01*
X199125000Y-59339285D01*
X198946428Y-59339285D01*
X199625000Y-58589285D02*
X200089285Y-58589285D01*
X199839285Y-58875000D01*
X199946428Y-58875000D01*
X200017857Y-58910714D01*
X200053571Y-58946428D01*
X200089285Y-59017857D01*
X200089285Y-59196428D01*
X200053571Y-59267857D01*
X200017857Y-59303571D01*
X199946428Y-59339285D01*
X199732142Y-59339285D01*
X199660714Y-59303571D01*
X199625000Y-59267857D01*
X201652380Y-62633333D02*
X200652380Y-62633333D01*
X200652380Y-62252380D01*
X200700000Y-62157142D01*
X200747619Y-62109523D01*
X200842857Y-62061904D01*
X200985714Y-62061904D01*
X201080952Y-62109523D01*
X201128571Y-62157142D01*
X201176190Y-62252380D01*
X201176190Y-62633333D01*
X200652380Y-61728571D02*
X201652380Y-61490476D01*
X200938095Y-61300000D01*
X201652380Y-61109523D01*
X200652380Y-60871428D01*
X201652380Y-59919047D02*
X201176190Y-60252380D01*
X201652380Y-60490476D02*
X200652380Y-60490476D01*
X200652380Y-60109523D01*
X200700000Y-60014285D01*
X200747619Y-59966666D01*
X200842857Y-59919047D01*
X200985714Y-59919047D01*
X201080952Y-59966666D01*
X201128571Y-60014285D01*
X201176190Y-60109523D01*
X201176190Y-60490476D01*
%TO.C,D2*%
X196696428Y-59339285D02*
X196696428Y-58589285D01*
X196875000Y-58589285D01*
X196982142Y-58625000D01*
X197053571Y-58696428D01*
X197089285Y-58767857D01*
X197125000Y-58910714D01*
X197125000Y-59017857D01*
X197089285Y-59160714D01*
X197053571Y-59232142D01*
X196982142Y-59303571D01*
X196875000Y-59339285D01*
X196696428Y-59339285D01*
X197410714Y-58660714D02*
X197446428Y-58625000D01*
X197517857Y-58589285D01*
X197696428Y-58589285D01*
X197767857Y-58625000D01*
X197803571Y-58660714D01*
X197839285Y-58732142D01*
X197839285Y-58803571D01*
X197803571Y-58910714D01*
X197375000Y-59339285D01*
X197839285Y-59339285D01*
X195766666Y-62569047D02*
X195766666Y-62092857D01*
X196052380Y-62664285D02*
X195052380Y-62330952D01*
X196052380Y-61997619D01*
X195957142Y-61092857D02*
X196004761Y-61140476D01*
X196052380Y-61283333D01*
X196052380Y-61378571D01*
X196004761Y-61521428D01*
X195909523Y-61616666D01*
X195814285Y-61664285D01*
X195623809Y-61711904D01*
X195480952Y-61711904D01*
X195290476Y-61664285D01*
X195195238Y-61616666D01*
X195100000Y-61521428D01*
X195052380Y-61378571D01*
X195052380Y-61283333D01*
X195100000Y-61140476D01*
X195147619Y-61092857D01*
X195052380Y-60807142D02*
X195052380Y-60235714D01*
X196052380Y-60521428D02*
X195052380Y-60521428D01*
%TO.C,D1*%
X205546428Y-93839285D02*
X205546428Y-93089285D01*
X205725000Y-93089285D01*
X205832142Y-93125000D01*
X205903571Y-93196428D01*
X205939285Y-93267857D01*
X205975000Y-93410714D01*
X205975000Y-93517857D01*
X205939285Y-93660714D01*
X205903571Y-93732142D01*
X205832142Y-93803571D01*
X205725000Y-93839285D01*
X205546428Y-93839285D01*
X206689285Y-93839285D02*
X206260714Y-93839285D01*
X206475000Y-93839285D02*
X206475000Y-93089285D01*
X206403571Y-93196428D01*
X206332142Y-93267857D01*
X206260714Y-93303571D01*
%TO.C,C2*%
X203875000Y-91767857D02*
X203839285Y-91803571D01*
X203732142Y-91839285D01*
X203660714Y-91839285D01*
X203553571Y-91803571D01*
X203482142Y-91732142D01*
X203446428Y-91660714D01*
X203410714Y-91517857D01*
X203410714Y-91410714D01*
X203446428Y-91267857D01*
X203482142Y-91196428D01*
X203553571Y-91125000D01*
X203660714Y-91089285D01*
X203732142Y-91089285D01*
X203839285Y-91125000D01*
X203875000Y-91160714D01*
X204160714Y-91160714D02*
X204196428Y-91125000D01*
X204267857Y-91089285D01*
X204446428Y-91089285D01*
X204517857Y-91125000D01*
X204553571Y-91160714D01*
X204589285Y-91232142D01*
X204589285Y-91303571D01*
X204553571Y-91410714D01*
X204125000Y-91839285D01*
X204589285Y-91839285D01*
%TO.C,C1*%
X196775000Y-95467857D02*
X196739285Y-95503571D01*
X196632142Y-95539285D01*
X196560714Y-95539285D01*
X196453571Y-95503571D01*
X196382142Y-95432142D01*
X196346428Y-95360714D01*
X196310714Y-95217857D01*
X196310714Y-95110714D01*
X196346428Y-94967857D01*
X196382142Y-94896428D01*
X196453571Y-94825000D01*
X196560714Y-94789285D01*
X196632142Y-94789285D01*
X196739285Y-94825000D01*
X196775000Y-94860714D01*
X197489285Y-95539285D02*
X197060714Y-95539285D01*
X197275000Y-95539285D02*
X197275000Y-94789285D01*
X197203571Y-94896428D01*
X197132142Y-94967857D01*
X197060714Y-95003571D01*
%TO.C,U2*%
X209428571Y-67589285D02*
X209428571Y-68196428D01*
X209464285Y-68267857D01*
X209500000Y-68303571D01*
X209571428Y-68339285D01*
X209714285Y-68339285D01*
X209785714Y-68303571D01*
X209821428Y-68267857D01*
X209857142Y-68196428D01*
X209857142Y-67589285D01*
X210178571Y-67660714D02*
X210214285Y-67625000D01*
X210285714Y-67589285D01*
X210464285Y-67589285D01*
X210535714Y-67625000D01*
X210571428Y-67660714D01*
X210607142Y-67732142D01*
X210607142Y-67803571D01*
X210571428Y-67910714D01*
X210142857Y-68339285D01*
X210607142Y-68339285D01*
%TO.C,H2*%
X227428571Y-103339285D02*
X227428571Y-102589285D01*
X227428571Y-102946428D02*
X227857142Y-102946428D01*
X227857142Y-103339285D02*
X227857142Y-102589285D01*
X228178571Y-102660714D02*
X228214285Y-102625000D01*
X228285714Y-102589285D01*
X228464285Y-102589285D01*
X228535714Y-102625000D01*
X228571428Y-102660714D01*
X228607142Y-102732142D01*
X228607142Y-102803571D01*
X228571428Y-102910714D01*
X228142857Y-103339285D01*
X228607142Y-103339285D01*
%TO.C,H1*%
X191428571Y-103339285D02*
X191428571Y-102589285D01*
X191428571Y-102946428D02*
X191857142Y-102946428D01*
X191857142Y-103339285D02*
X191857142Y-102589285D01*
X192607142Y-103339285D02*
X192178571Y-103339285D01*
X192392857Y-103339285D02*
X192392857Y-102589285D01*
X192321428Y-102696428D01*
X192250000Y-102767857D01*
X192178571Y-102803571D01*
%TO.C,C3*%
X200467857Y-83175000D02*
X200503571Y-83210714D01*
X200539285Y-83317857D01*
X200539285Y-83389285D01*
X200503571Y-83496428D01*
X200432142Y-83567857D01*
X200360714Y-83603571D01*
X200217857Y-83639285D01*
X200110714Y-83639285D01*
X199967857Y-83603571D01*
X199896428Y-83567857D01*
X199825000Y-83496428D01*
X199789285Y-83389285D01*
X199789285Y-83317857D01*
X199825000Y-83210714D01*
X199860714Y-83175000D01*
X199789285Y-82925000D02*
X199789285Y-82460714D01*
X200075000Y-82710714D01*
X200075000Y-82603571D01*
X200110714Y-82532142D01*
X200146428Y-82496428D01*
X200217857Y-82460714D01*
X200396428Y-82460714D01*
X200467857Y-82496428D01*
X200503571Y-82532142D01*
X200539285Y-82603571D01*
X200539285Y-82817857D01*
X200503571Y-82889285D01*
X200467857Y-82925000D01*
%TO.C,C4*%
X189917857Y-88125000D02*
X189953571Y-88160714D01*
X189989285Y-88267857D01*
X189989285Y-88339285D01*
X189953571Y-88446428D01*
X189882142Y-88517857D01*
X189810714Y-88553571D01*
X189667857Y-88589285D01*
X189560714Y-88589285D01*
X189417857Y-88553571D01*
X189346428Y-88517857D01*
X189275000Y-88446428D01*
X189239285Y-88339285D01*
X189239285Y-88267857D01*
X189275000Y-88160714D01*
X189310714Y-88125000D01*
X189489285Y-87482142D02*
X189989285Y-87482142D01*
X189203571Y-87660714D02*
X189739285Y-87839285D01*
X189739285Y-87375000D01*
%TO.C,C5*%
X194617857Y-88125000D02*
X194653571Y-88160714D01*
X194689285Y-88267857D01*
X194689285Y-88339285D01*
X194653571Y-88446428D01*
X194582142Y-88517857D01*
X194510714Y-88553571D01*
X194367857Y-88589285D01*
X194260714Y-88589285D01*
X194117857Y-88553571D01*
X194046428Y-88517857D01*
X193975000Y-88446428D01*
X193939285Y-88339285D01*
X193939285Y-88267857D01*
X193975000Y-88160714D01*
X194010714Y-88125000D01*
X193939285Y-87446428D02*
X193939285Y-87803571D01*
X194296428Y-87839285D01*
X194260714Y-87803571D01*
X194225000Y-87732142D01*
X194225000Y-87553571D01*
X194260714Y-87482142D01*
X194296428Y-87446428D01*
X194367857Y-87410714D01*
X194546428Y-87410714D01*
X194617857Y-87446428D01*
X194653571Y-87482142D01*
X194689285Y-87553571D01*
X194689285Y-87732142D01*
X194653571Y-87803571D01*
X194617857Y-87839285D01*
%TO.C,J1*%
X226089285Y-92750000D02*
X226625000Y-92750000D01*
X226732142Y-92785714D01*
X226803571Y-92857142D01*
X226839285Y-92964285D01*
X226839285Y-93035714D01*
X226839285Y-92000000D02*
X226839285Y-92428571D01*
X226839285Y-92214285D02*
X226089285Y-92214285D01*
X226196428Y-92285714D01*
X226267857Y-92357142D01*
X226303571Y-92428571D01*
%TO.C,J2*%
X210100000Y-84589285D02*
X210100000Y-85125000D01*
X210064285Y-85232142D01*
X209992857Y-85303571D01*
X209885714Y-85339285D01*
X209814285Y-85339285D01*
X210421428Y-84660714D02*
X210457142Y-84625000D01*
X210528571Y-84589285D01*
X210707142Y-84589285D01*
X210778571Y-84625000D01*
X210814285Y-84660714D01*
X210850000Y-84732142D01*
X210850000Y-84803571D01*
X210814285Y-84910714D01*
X210385714Y-85339285D01*
X210850000Y-85339285D01*
%TO.C,J5*%
X226089285Y-79250000D02*
X226625000Y-79250000D01*
X226732142Y-79285714D01*
X226803571Y-79357142D01*
X226839285Y-79464285D01*
X226839285Y-79535714D01*
X226089285Y-78535714D02*
X226089285Y-78892857D01*
X226446428Y-78928571D01*
X226410714Y-78892857D01*
X226375000Y-78821428D01*
X226375000Y-78642857D01*
X226410714Y-78571428D01*
X226446428Y-78535714D01*
X226517857Y-78500000D01*
X226696428Y-78500000D01*
X226767857Y-78535714D01*
X226803571Y-78571428D01*
X226839285Y-78642857D01*
X226839285Y-78821428D01*
X226803571Y-78892857D01*
X226767857Y-78928571D01*
%TO.C,Q1*%
X198160714Y-72321428D02*
X198125000Y-72392857D01*
X198053571Y-72464285D01*
X197946428Y-72571428D01*
X197910714Y-72642857D01*
X197910714Y-72714285D01*
X198089285Y-72678571D02*
X198053571Y-72750000D01*
X197982142Y-72821428D01*
X197839285Y-72857142D01*
X197589285Y-72857142D01*
X197446428Y-72821428D01*
X197375000Y-72750000D01*
X197339285Y-72678571D01*
X197339285Y-72535714D01*
X197375000Y-72464285D01*
X197446428Y-72392857D01*
X197589285Y-72357142D01*
X197839285Y-72357142D01*
X197982142Y-72392857D01*
X198053571Y-72464285D01*
X198089285Y-72535714D01*
X198089285Y-72678571D01*
X198089285Y-71642857D02*
X198089285Y-72071428D01*
X198089285Y-71857142D02*
X197339285Y-71857142D01*
X197446428Y-71928571D01*
X197517857Y-72000000D01*
X197553571Y-72071428D01*
%TO.C,Q2*%
X189760714Y-72321428D02*
X189725000Y-72392857D01*
X189653571Y-72464285D01*
X189546428Y-72571428D01*
X189510714Y-72642857D01*
X189510714Y-72714285D01*
X189689285Y-72678571D02*
X189653571Y-72750000D01*
X189582142Y-72821428D01*
X189439285Y-72857142D01*
X189189285Y-72857142D01*
X189046428Y-72821428D01*
X188975000Y-72750000D01*
X188939285Y-72678571D01*
X188939285Y-72535714D01*
X188975000Y-72464285D01*
X189046428Y-72392857D01*
X189189285Y-72357142D01*
X189439285Y-72357142D01*
X189582142Y-72392857D01*
X189653571Y-72464285D01*
X189689285Y-72535714D01*
X189689285Y-72678571D01*
X189010714Y-72071428D02*
X188975000Y-72035714D01*
X188939285Y-71964285D01*
X188939285Y-71785714D01*
X188975000Y-71714285D01*
X189010714Y-71678571D01*
X189082142Y-71642857D01*
X189153571Y-71642857D01*
X189260714Y-71678571D01*
X189689285Y-72107142D01*
X189689285Y-71642857D01*
%TO.C,Q3*%
X222060714Y-68321428D02*
X222025000Y-68392857D01*
X221953571Y-68464285D01*
X221846428Y-68571428D01*
X221810714Y-68642857D01*
X221810714Y-68714285D01*
X221989285Y-68678571D02*
X221953571Y-68750000D01*
X221882142Y-68821428D01*
X221739285Y-68857142D01*
X221489285Y-68857142D01*
X221346428Y-68821428D01*
X221275000Y-68750000D01*
X221239285Y-68678571D01*
X221239285Y-68535714D01*
X221275000Y-68464285D01*
X221346428Y-68392857D01*
X221489285Y-68357142D01*
X221739285Y-68357142D01*
X221882142Y-68392857D01*
X221953571Y-68464285D01*
X221989285Y-68535714D01*
X221989285Y-68678571D01*
X221239285Y-68107142D02*
X221239285Y-67642857D01*
X221525000Y-67892857D01*
X221525000Y-67785714D01*
X221560714Y-67714285D01*
X221596428Y-67678571D01*
X221667857Y-67642857D01*
X221846428Y-67642857D01*
X221917857Y-67678571D01*
X221953571Y-67714285D01*
X221989285Y-67785714D01*
X221989285Y-68000000D01*
X221953571Y-68071428D01*
X221917857Y-68107142D01*
%TO.C,Q4*%
X220560714Y-64521428D02*
X220525000Y-64592857D01*
X220453571Y-64664285D01*
X220346428Y-64771428D01*
X220310714Y-64842857D01*
X220310714Y-64914285D01*
X220489285Y-64878571D02*
X220453571Y-64950000D01*
X220382142Y-65021428D01*
X220239285Y-65057142D01*
X219989285Y-65057142D01*
X219846428Y-65021428D01*
X219775000Y-64950000D01*
X219739285Y-64878571D01*
X219739285Y-64735714D01*
X219775000Y-64664285D01*
X219846428Y-64592857D01*
X219989285Y-64557142D01*
X220239285Y-64557142D01*
X220382142Y-64592857D01*
X220453571Y-64664285D01*
X220489285Y-64735714D01*
X220489285Y-64878571D01*
X219989285Y-63914285D02*
X220489285Y-63914285D01*
X219703571Y-64092857D02*
X220239285Y-64271428D01*
X220239285Y-63807142D01*
%TO.C,Q5*%
X222060714Y-76371428D02*
X222025000Y-76442857D01*
X221953571Y-76514285D01*
X221846428Y-76621428D01*
X221810714Y-76692857D01*
X221810714Y-76764285D01*
X221989285Y-76728571D02*
X221953571Y-76800000D01*
X221882142Y-76871428D01*
X221739285Y-76907142D01*
X221489285Y-76907142D01*
X221346428Y-76871428D01*
X221275000Y-76800000D01*
X221239285Y-76728571D01*
X221239285Y-76585714D01*
X221275000Y-76514285D01*
X221346428Y-76442857D01*
X221489285Y-76407142D01*
X221739285Y-76407142D01*
X221882142Y-76442857D01*
X221953571Y-76514285D01*
X221989285Y-76585714D01*
X221989285Y-76728571D01*
X221239285Y-75728571D02*
X221239285Y-76085714D01*
X221596428Y-76121428D01*
X221560714Y-76085714D01*
X221525000Y-76014285D01*
X221525000Y-75835714D01*
X221560714Y-75764285D01*
X221596428Y-75728571D01*
X221667857Y-75692857D01*
X221846428Y-75692857D01*
X221917857Y-75728571D01*
X221953571Y-75764285D01*
X221989285Y-75835714D01*
X221989285Y-76014285D01*
X221953571Y-76085714D01*
X221917857Y-76121428D01*
%TO.C,Q6*%
X225560714Y-68321428D02*
X225525000Y-68392857D01*
X225453571Y-68464285D01*
X225346428Y-68571428D01*
X225310714Y-68642857D01*
X225310714Y-68714285D01*
X225489285Y-68678571D02*
X225453571Y-68750000D01*
X225382142Y-68821428D01*
X225239285Y-68857142D01*
X224989285Y-68857142D01*
X224846428Y-68821428D01*
X224775000Y-68750000D01*
X224739285Y-68678571D01*
X224739285Y-68535714D01*
X224775000Y-68464285D01*
X224846428Y-68392857D01*
X224989285Y-68357142D01*
X225239285Y-68357142D01*
X225382142Y-68392857D01*
X225453571Y-68464285D01*
X225489285Y-68535714D01*
X225489285Y-68678571D01*
X224739285Y-67714285D02*
X224739285Y-67857142D01*
X224775000Y-67928571D01*
X224810714Y-67964285D01*
X224917857Y-68035714D01*
X225060714Y-68071428D01*
X225346428Y-68071428D01*
X225417857Y-68035714D01*
X225453571Y-68000000D01*
X225489285Y-67928571D01*
X225489285Y-67785714D01*
X225453571Y-67714285D01*
X225417857Y-67678571D01*
X225346428Y-67642857D01*
X225167857Y-67642857D01*
X225096428Y-67678571D01*
X225060714Y-67714285D01*
X225025000Y-67785714D01*
X225025000Y-67928571D01*
X225060714Y-68000000D01*
X225096428Y-68035714D01*
X225167857Y-68071428D01*
%TO.C,Q7*%
X227510714Y-64871428D02*
X227475000Y-64942857D01*
X227403571Y-65014285D01*
X227296428Y-65121428D01*
X227260714Y-65192857D01*
X227260714Y-65264285D01*
X227439285Y-65228571D02*
X227403571Y-65300000D01*
X227332142Y-65371428D01*
X227189285Y-65407142D01*
X226939285Y-65407142D01*
X226796428Y-65371428D01*
X226725000Y-65300000D01*
X226689285Y-65228571D01*
X226689285Y-65085714D01*
X226725000Y-65014285D01*
X226796428Y-64942857D01*
X226939285Y-64907142D01*
X227189285Y-64907142D01*
X227332142Y-64942857D01*
X227403571Y-65014285D01*
X227439285Y-65085714D01*
X227439285Y-65228571D01*
X226689285Y-64657142D02*
X226689285Y-64157142D01*
X227439285Y-64478571D01*
%TO.C,Q8*%
X225560714Y-76321428D02*
X225525000Y-76392857D01*
X225453571Y-76464285D01*
X225346428Y-76571428D01*
X225310714Y-76642857D01*
X225310714Y-76714285D01*
X225489285Y-76678571D02*
X225453571Y-76750000D01*
X225382142Y-76821428D01*
X225239285Y-76857142D01*
X224989285Y-76857142D01*
X224846428Y-76821428D01*
X224775000Y-76750000D01*
X224739285Y-76678571D01*
X224739285Y-76535714D01*
X224775000Y-76464285D01*
X224846428Y-76392857D01*
X224989285Y-76357142D01*
X225239285Y-76357142D01*
X225382142Y-76392857D01*
X225453571Y-76464285D01*
X225489285Y-76535714D01*
X225489285Y-76678571D01*
X225060714Y-75928571D02*
X225025000Y-76000000D01*
X224989285Y-76035714D01*
X224917857Y-76071428D01*
X224882142Y-76071428D01*
X224810714Y-76035714D01*
X224775000Y-76000000D01*
X224739285Y-75928571D01*
X224739285Y-75785714D01*
X224775000Y-75714285D01*
X224810714Y-75678571D01*
X224882142Y-75642857D01*
X224917857Y-75642857D01*
X224989285Y-75678571D01*
X225025000Y-75714285D01*
X225060714Y-75785714D01*
X225060714Y-75928571D01*
X225096428Y-76000000D01*
X225132142Y-76035714D01*
X225203571Y-76071428D01*
X225346428Y-76071428D01*
X225417857Y-76035714D01*
X225453571Y-76000000D01*
X225489285Y-75928571D01*
X225489285Y-75785714D01*
X225453571Y-75714285D01*
X225417857Y-75678571D01*
X225346428Y-75642857D01*
X225203571Y-75642857D01*
X225132142Y-75678571D01*
X225096428Y-75714285D01*
X225060714Y-75785714D01*
%TO.C,R1*%
X201375000Y-87289285D02*
X201125000Y-86932142D01*
X200946428Y-87289285D02*
X200946428Y-86539285D01*
X201232142Y-86539285D01*
X201303571Y-86575000D01*
X201339285Y-86610714D01*
X201375000Y-86682142D01*
X201375000Y-86789285D01*
X201339285Y-86860714D01*
X201303571Y-86896428D01*
X201232142Y-86932142D01*
X200946428Y-86932142D01*
X202089285Y-87289285D02*
X201660714Y-87289285D01*
X201875000Y-87289285D02*
X201875000Y-86539285D01*
X201803571Y-86646428D01*
X201732142Y-86717857D01*
X201660714Y-86753571D01*
%TO.C,R2*%
X189839285Y-74625000D02*
X189482142Y-74875000D01*
X189839285Y-75053571D02*
X189089285Y-75053571D01*
X189089285Y-74767857D01*
X189125000Y-74696428D01*
X189160714Y-74660714D01*
X189232142Y-74625000D01*
X189339285Y-74625000D01*
X189410714Y-74660714D01*
X189446428Y-74696428D01*
X189482142Y-74767857D01*
X189482142Y-75053571D01*
X189160714Y-74339285D02*
X189125000Y-74303571D01*
X189089285Y-74232142D01*
X189089285Y-74053571D01*
X189125000Y-73982142D01*
X189160714Y-73946428D01*
X189232142Y-73910714D01*
X189303571Y-73910714D01*
X189410714Y-73946428D01*
X189839285Y-74375000D01*
X189839285Y-73910714D01*
%TO.C,R3*%
X199625000Y-75439285D02*
X199375000Y-75082142D01*
X199196428Y-75439285D02*
X199196428Y-74689285D01*
X199482142Y-74689285D01*
X199553571Y-74725000D01*
X199589285Y-74760714D01*
X199625000Y-74832142D01*
X199625000Y-74939285D01*
X199589285Y-75010714D01*
X199553571Y-75046428D01*
X199482142Y-75082142D01*
X199196428Y-75082142D01*
X199875000Y-74689285D02*
X200339285Y-74689285D01*
X200089285Y-74975000D01*
X200196428Y-74975000D01*
X200267857Y-75010714D01*
X200303571Y-75046428D01*
X200339285Y-75117857D01*
X200339285Y-75296428D01*
X200303571Y-75367857D01*
X200267857Y-75403571D01*
X200196428Y-75439285D01*
X199982142Y-75439285D01*
X199910714Y-75403571D01*
X199875000Y-75367857D01*
%TO.C,R4*%
X223525000Y-78339285D02*
X223275000Y-77982142D01*
X223096428Y-78339285D02*
X223096428Y-77589285D01*
X223382142Y-77589285D01*
X223453571Y-77625000D01*
X223489285Y-77660714D01*
X223525000Y-77732142D01*
X223525000Y-77839285D01*
X223489285Y-77910714D01*
X223453571Y-77946428D01*
X223382142Y-77982142D01*
X223096428Y-77982142D01*
X224167857Y-77839285D02*
X224167857Y-78339285D01*
X223989285Y-77553571D02*
X223810714Y-78089285D01*
X224275000Y-78089285D01*
%TO.C,R5*%
X223525000Y-80339285D02*
X223275000Y-79982142D01*
X223096428Y-80339285D02*
X223096428Y-79589285D01*
X223382142Y-79589285D01*
X223453571Y-79625000D01*
X223489285Y-79660714D01*
X223525000Y-79732142D01*
X223525000Y-79839285D01*
X223489285Y-79910714D01*
X223453571Y-79946428D01*
X223382142Y-79982142D01*
X223096428Y-79982142D01*
X224203571Y-79589285D02*
X223846428Y-79589285D01*
X223810714Y-79946428D01*
X223846428Y-79910714D01*
X223917857Y-79875000D01*
X224096428Y-79875000D01*
X224167857Y-79910714D01*
X224203571Y-79946428D01*
X224239285Y-80017857D01*
X224239285Y-80196428D01*
X224203571Y-80267857D01*
X224167857Y-80303571D01*
X224096428Y-80339285D01*
X223917857Y-80339285D01*
X223846428Y-80303571D01*
X223810714Y-80267857D01*
%TO.C,R6*%
X197889285Y-74625000D02*
X197532142Y-74875000D01*
X197889285Y-75053571D02*
X197139285Y-75053571D01*
X197139285Y-74767857D01*
X197175000Y-74696428D01*
X197210714Y-74660714D01*
X197282142Y-74625000D01*
X197389285Y-74625000D01*
X197460714Y-74660714D01*
X197496428Y-74696428D01*
X197532142Y-74767857D01*
X197532142Y-75053571D01*
X197139285Y-73982142D02*
X197139285Y-74125000D01*
X197175000Y-74196428D01*
X197210714Y-74232142D01*
X197317857Y-74303571D01*
X197460714Y-74339285D01*
X197746428Y-74339285D01*
X197817857Y-74303571D01*
X197853571Y-74267857D01*
X197889285Y-74196428D01*
X197889285Y-74053571D01*
X197853571Y-73982142D01*
X197817857Y-73946428D01*
X197746428Y-73910714D01*
X197567857Y-73910714D01*
X197496428Y-73946428D01*
X197460714Y-73982142D01*
X197425000Y-74053571D01*
X197425000Y-74196428D01*
X197460714Y-74267857D01*
X197496428Y-74303571D01*
X197567857Y-74339285D01*
%TO.C,R7*%
X198839285Y-70175000D02*
X198482142Y-70425000D01*
X198839285Y-70603571D02*
X198089285Y-70603571D01*
X198089285Y-70317857D01*
X198125000Y-70246428D01*
X198160714Y-70210714D01*
X198232142Y-70175000D01*
X198339285Y-70175000D01*
X198410714Y-70210714D01*
X198446428Y-70246428D01*
X198482142Y-70317857D01*
X198482142Y-70603571D01*
X198089285Y-69925000D02*
X198089285Y-69425000D01*
X198839285Y-69746428D01*
%TO.C,R8*%
X219725000Y-67889285D02*
X219475000Y-67532142D01*
X219296428Y-67889285D02*
X219296428Y-67139285D01*
X219582142Y-67139285D01*
X219653571Y-67175000D01*
X219689285Y-67210714D01*
X219725000Y-67282142D01*
X219725000Y-67389285D01*
X219689285Y-67460714D01*
X219653571Y-67496428D01*
X219582142Y-67532142D01*
X219296428Y-67532142D01*
X220153571Y-67460714D02*
X220082142Y-67425000D01*
X220046428Y-67389285D01*
X220010714Y-67317857D01*
X220010714Y-67282142D01*
X220046428Y-67210714D01*
X220082142Y-67175000D01*
X220153571Y-67139285D01*
X220296428Y-67139285D01*
X220367857Y-67175000D01*
X220403571Y-67210714D01*
X220439285Y-67282142D01*
X220439285Y-67317857D01*
X220403571Y-67389285D01*
X220367857Y-67425000D01*
X220296428Y-67460714D01*
X220153571Y-67460714D01*
X220082142Y-67496428D01*
X220046428Y-67532142D01*
X220010714Y-67603571D01*
X220010714Y-67746428D01*
X220046428Y-67817857D01*
X220082142Y-67853571D01*
X220153571Y-67889285D01*
X220296428Y-67889285D01*
X220367857Y-67853571D01*
X220403571Y-67817857D01*
X220439285Y-67746428D01*
X220439285Y-67603571D01*
X220403571Y-67532142D01*
X220367857Y-67496428D01*
X220296428Y-67460714D01*
%TO.C,R9*%
X219839285Y-62875000D02*
X219482142Y-63125000D01*
X219839285Y-63303571D02*
X219089285Y-63303571D01*
X219089285Y-63017857D01*
X219125000Y-62946428D01*
X219160714Y-62910714D01*
X219232142Y-62875000D01*
X219339285Y-62875000D01*
X219410714Y-62910714D01*
X219446428Y-62946428D01*
X219482142Y-63017857D01*
X219482142Y-63303571D01*
X219839285Y-62517857D02*
X219839285Y-62375000D01*
X219803571Y-62303571D01*
X219767857Y-62267857D01*
X219660714Y-62196428D01*
X219517857Y-62160714D01*
X219232142Y-62160714D01*
X219160714Y-62196428D01*
X219125000Y-62232142D01*
X219089285Y-62303571D01*
X219089285Y-62446428D01*
X219125000Y-62517857D01*
X219160714Y-62553571D01*
X219232142Y-62589285D01*
X219410714Y-62589285D01*
X219482142Y-62553571D01*
X219517857Y-62517857D01*
X219553571Y-62446428D01*
X219553571Y-62303571D01*
X219517857Y-62232142D01*
X219482142Y-62196428D01*
X219410714Y-62160714D01*
%TO.C,R10*%
X220089285Y-72882142D02*
X219732142Y-73132142D01*
X220089285Y-73310714D02*
X219339285Y-73310714D01*
X219339285Y-73025000D01*
X219375000Y-72953571D01*
X219410714Y-72917857D01*
X219482142Y-72882142D01*
X219589285Y-72882142D01*
X219660714Y-72917857D01*
X219696428Y-72953571D01*
X219732142Y-73025000D01*
X219732142Y-73310714D01*
X220089285Y-72167857D02*
X220089285Y-72596428D01*
X220089285Y-72382142D02*
X219339285Y-72382142D01*
X219446428Y-72453571D01*
X219517857Y-72525000D01*
X219553571Y-72596428D01*
X219339285Y-71703571D02*
X219339285Y-71632142D01*
X219375000Y-71560714D01*
X219410714Y-71525000D01*
X219482142Y-71489285D01*
X219625000Y-71453571D01*
X219803571Y-71453571D01*
X219946428Y-71489285D01*
X220017857Y-71525000D01*
X220053571Y-71560714D01*
X220089285Y-71632142D01*
X220089285Y-71703571D01*
X220053571Y-71775000D01*
X220017857Y-71810714D01*
X219946428Y-71846428D01*
X219803571Y-71882142D01*
X219625000Y-71882142D01*
X219482142Y-71846428D01*
X219410714Y-71810714D01*
X219375000Y-71775000D01*
X219339285Y-71703571D01*
%TO.C,R11*%
X228367857Y-67789285D02*
X228117857Y-67432142D01*
X227939285Y-67789285D02*
X227939285Y-67039285D01*
X228225000Y-67039285D01*
X228296428Y-67075000D01*
X228332142Y-67110714D01*
X228367857Y-67182142D01*
X228367857Y-67289285D01*
X228332142Y-67360714D01*
X228296428Y-67396428D01*
X228225000Y-67432142D01*
X227939285Y-67432142D01*
X229082142Y-67789285D02*
X228653571Y-67789285D01*
X228867857Y-67789285D02*
X228867857Y-67039285D01*
X228796428Y-67146428D01*
X228725000Y-67217857D01*
X228653571Y-67253571D01*
X229796428Y-67789285D02*
X229367857Y-67789285D01*
X229582142Y-67789285D02*
X229582142Y-67039285D01*
X229510714Y-67146428D01*
X229439285Y-67217857D01*
X229367857Y-67253571D01*
%TO.C,R12*%
X224455357Y-61689285D02*
X224205357Y-61332142D01*
X224026785Y-61689285D02*
X224026785Y-60939285D01*
X224312500Y-60939285D01*
X224383928Y-60975000D01*
X224419642Y-61010714D01*
X224455357Y-61082142D01*
X224455357Y-61189285D01*
X224419642Y-61260714D01*
X224383928Y-61296428D01*
X224312500Y-61332142D01*
X224026785Y-61332142D01*
X225169642Y-61689285D02*
X224741071Y-61689285D01*
X224955357Y-61689285D02*
X224955357Y-60939285D01*
X224883928Y-61046428D01*
X224812500Y-61117857D01*
X224741071Y-61153571D01*
X225455357Y-61010714D02*
X225491071Y-60975000D01*
X225562500Y-60939285D01*
X225741071Y-60939285D01*
X225812500Y-60975000D01*
X225848214Y-61010714D01*
X225883928Y-61082142D01*
X225883928Y-61153571D01*
X225848214Y-61260714D01*
X225419642Y-61689285D01*
X225883928Y-61689285D01*
%TO.C,R13*%
X230939285Y-75482142D02*
X230582142Y-75732142D01*
X230939285Y-75910714D02*
X230189285Y-75910714D01*
X230189285Y-75625000D01*
X230225000Y-75553571D01*
X230260714Y-75517857D01*
X230332142Y-75482142D01*
X230439285Y-75482142D01*
X230510714Y-75517857D01*
X230546428Y-75553571D01*
X230582142Y-75625000D01*
X230582142Y-75910714D01*
X230939285Y-74767857D02*
X230939285Y-75196428D01*
X230939285Y-74982142D02*
X230189285Y-74982142D01*
X230296428Y-75053571D01*
X230367857Y-75125000D01*
X230403571Y-75196428D01*
X230189285Y-74517857D02*
X230189285Y-74053571D01*
X230475000Y-74303571D01*
X230475000Y-74196428D01*
X230510714Y-74125000D01*
X230546428Y-74089285D01*
X230617857Y-74053571D01*
X230796428Y-74053571D01*
X230867857Y-74089285D01*
X230903571Y-74125000D01*
X230939285Y-74196428D01*
X230939285Y-74410714D01*
X230903571Y-74482142D01*
X230867857Y-74517857D01*
%TO.C,R14*%
X228567857Y-72589285D02*
X228317857Y-72232142D01*
X228139285Y-72589285D02*
X228139285Y-71839285D01*
X228425000Y-71839285D01*
X228496428Y-71875000D01*
X228532142Y-71910714D01*
X228567857Y-71982142D01*
X228567857Y-72089285D01*
X228532142Y-72160714D01*
X228496428Y-72196428D01*
X228425000Y-72232142D01*
X228139285Y-72232142D01*
X229282142Y-72589285D02*
X228853571Y-72589285D01*
X229067857Y-72589285D02*
X229067857Y-71839285D01*
X228996428Y-71946428D01*
X228925000Y-72017857D01*
X228853571Y-72053571D01*
X229925000Y-72089285D02*
X229925000Y-72589285D01*
X229746428Y-71803571D02*
X229567857Y-72339285D01*
X230032142Y-72339285D01*
%TO.C,R15*%
X219839285Y-61232142D02*
X219482142Y-61482142D01*
X219839285Y-61660714D02*
X219089285Y-61660714D01*
X219089285Y-61375000D01*
X219125000Y-61303571D01*
X219160714Y-61267857D01*
X219232142Y-61232142D01*
X219339285Y-61232142D01*
X219410714Y-61267857D01*
X219446428Y-61303571D01*
X219482142Y-61375000D01*
X219482142Y-61660714D01*
X219839285Y-60517857D02*
X219839285Y-60946428D01*
X219839285Y-60732142D02*
X219089285Y-60732142D01*
X219196428Y-60803571D01*
X219267857Y-60875000D01*
X219303571Y-60946428D01*
X219089285Y-59839285D02*
X219089285Y-60196428D01*
X219446428Y-60232142D01*
X219410714Y-60196428D01*
X219375000Y-60125000D01*
X219375000Y-59946428D01*
X219410714Y-59875000D01*
X219446428Y-59839285D01*
X219517857Y-59803571D01*
X219696428Y-59803571D01*
X219767857Y-59839285D01*
X219803571Y-59875000D01*
X219839285Y-59946428D01*
X219839285Y-60125000D01*
X219803571Y-60196428D01*
X219767857Y-60232142D01*
%TO.C,R16*%
X221339285Y-72732142D02*
X220982142Y-72982142D01*
X221339285Y-73160714D02*
X220589285Y-73160714D01*
X220589285Y-72875000D01*
X220625000Y-72803571D01*
X220660714Y-72767857D01*
X220732142Y-72732142D01*
X220839285Y-72732142D01*
X220910714Y-72767857D01*
X220946428Y-72803571D01*
X220982142Y-72875000D01*
X220982142Y-73160714D01*
X221339285Y-72017857D02*
X221339285Y-72446428D01*
X221339285Y-72232142D02*
X220589285Y-72232142D01*
X220696428Y-72303571D01*
X220767857Y-72375000D01*
X220803571Y-72446428D01*
X220589285Y-71375000D02*
X220589285Y-71517857D01*
X220625000Y-71589285D01*
X220660714Y-71625000D01*
X220767857Y-71696428D01*
X220910714Y-71732142D01*
X221196428Y-71732142D01*
X221267857Y-71696428D01*
X221303571Y-71660714D01*
X221339285Y-71589285D01*
X221339285Y-71446428D01*
X221303571Y-71375000D01*
X221267857Y-71339285D01*
X221196428Y-71303571D01*
X221017857Y-71303571D01*
X220946428Y-71339285D01*
X220910714Y-71375000D01*
X220875000Y-71446428D01*
X220875000Y-71589285D01*
X220910714Y-71660714D01*
X220946428Y-71696428D01*
X221017857Y-71732142D01*
%TO.C,U1*%
X224289285Y-105871428D02*
X224896428Y-105871428D01*
X224967857Y-105835714D01*
X225003571Y-105800000D01*
X225039285Y-105728571D01*
X225039285Y-105585714D01*
X225003571Y-105514285D01*
X224967857Y-105478571D01*
X224896428Y-105442857D01*
X224289285Y-105442857D01*
X225039285Y-104692857D02*
X225039285Y-105121428D01*
X225039285Y-104907142D02*
X224289285Y-104907142D01*
X224396428Y-104978571D01*
X224467857Y-105050000D01*
X224503571Y-105121428D01*
%TO.C,U3*%
X196928571Y-87139285D02*
X196928571Y-87746428D01*
X196964285Y-87817857D01*
X197000000Y-87853571D01*
X197071428Y-87889285D01*
X197214285Y-87889285D01*
X197285714Y-87853571D01*
X197321428Y-87817857D01*
X197357142Y-87746428D01*
X197357142Y-87139285D01*
X197642857Y-87139285D02*
X198107142Y-87139285D01*
X197857142Y-87425000D01*
X197964285Y-87425000D01*
X198035714Y-87460714D01*
X198071428Y-87496428D01*
X198107142Y-87567857D01*
X198107142Y-87746428D01*
X198071428Y-87817857D01*
X198035714Y-87853571D01*
X197964285Y-87889285D01*
X197750000Y-87889285D01*
X197678571Y-87853571D01*
X197642857Y-87817857D01*
%TD*%
M02*
