%TF.GenerationSoftware,KiCad,Pcbnew,(5.1.6-0-10_14)*%
%TF.CreationDate,2020-07-27T20:59:48+02:00*%
%TF.ProjectId,DoorLightController,446f6f72-4c69-4676-9874-436f6e74726f,rev?*%
%TF.SameCoordinates,Original*%
%TF.FileFunction,Soldermask,Top*%
%TF.FilePolarity,Negative*%
%FSLAX46Y46*%
G04 Gerber Fmt 4.6, Leading zero omitted, Abs format (unit mm)*
G04 Created by KiCad (PCBNEW (5.1.6-0-10_14)) date 2020-07-27 20:59:48*
%MOMM*%
%LPD*%
G01*
G04 APERTURE LIST*
%ADD10R,2.000000X1.300000*%
%ADD11O,2.000000X1.300000*%
%ADD12R,2.000000X1.600000*%
%ADD13C,1.550000*%
%ADD14R,1.450000X0.500000*%
%ADD15R,2.100000X1.700000*%
%ADD16R,3.100000X5.700000*%
%ADD17R,1.200000X1.200000*%
%ADD18C,1.700000*%
%ADD19R,1.700000X1.700000*%
%ADD20R,2.600000X1.100000*%
%ADD21R,1.100000X1.900000*%
%ADD22C,3.300000*%
%ADD23O,2.100000X1.800000*%
%ADD24R,1.800000X1.800000*%
%ADD25O,1.800000X1.800000*%
%ADD26O,2.050000X1.800000*%
%ADD27R,0.900000X1.000000*%
%ADD28R,1.000000X0.900000*%
%ADD29R,4.700000X1.200000*%
%ADD30R,9.500000X10.900000*%
%ADD31R,2.700000X2.700000*%
G04 APERTURE END LIST*
D10*
%TO.C,J3*%
X190012500Y-91600000D03*
X190012500Y-97400000D03*
D11*
X190012500Y-98000000D03*
X190012500Y-91000000D03*
D12*
X190012500Y-93500000D03*
D13*
X192712500Y-97000000D03*
D14*
X192712500Y-94500000D03*
X192712500Y-95150000D03*
X192712500Y-95800000D03*
X192712500Y-93200000D03*
X192712500Y-93850000D03*
D13*
X192712500Y-92000000D03*
D12*
X190012500Y-95500000D03*
%TD*%
D15*
%TO.C,SW1*%
X199450000Y-65000000D03*
X194050000Y-65000000D03*
%TD*%
%TO.C,R18*%
G36*
G01*
X195100000Y-67768750D02*
X195100000Y-68731250D01*
G75*
G02*
X194831250Y-69000000I-268750J0D01*
G01*
X194293750Y-69000000D01*
G75*
G02*
X194025000Y-68731250I0J268750D01*
G01*
X194025000Y-67768750D01*
G75*
G02*
X194293750Y-67500000I268750J0D01*
G01*
X194831250Y-67500000D01*
G75*
G02*
X195100000Y-67768750I0J-268750D01*
G01*
G37*
G36*
G01*
X196975000Y-67768750D02*
X196975000Y-68731250D01*
G75*
G02*
X196706250Y-69000000I-268750J0D01*
G01*
X196168750Y-69000000D01*
G75*
G02*
X195900000Y-68731250I0J268750D01*
G01*
X195900000Y-67768750D01*
G75*
G02*
X196168750Y-67500000I268750J0D01*
G01*
X196706250Y-67500000D01*
G75*
G02*
X196975000Y-67768750I0J-268750D01*
G01*
G37*
%TD*%
%TO.C,R17*%
G36*
G01*
X193475000Y-67768750D02*
X193475000Y-68731250D01*
G75*
G02*
X193206250Y-69000000I-268750J0D01*
G01*
X192668750Y-69000000D01*
G75*
G02*
X192400000Y-68731250I0J268750D01*
G01*
X192400000Y-67768750D01*
G75*
G02*
X192668750Y-67500000I268750J0D01*
G01*
X193206250Y-67500000D01*
G75*
G02*
X193475000Y-67768750I0J-268750D01*
G01*
G37*
G36*
G01*
X191600000Y-67768750D02*
X191600000Y-68731250D01*
G75*
G02*
X191331250Y-69000000I-268750J0D01*
G01*
X190793750Y-69000000D01*
G75*
G02*
X190525000Y-68731250I0J268750D01*
G01*
X190525000Y-67768750D01*
G75*
G02*
X190793750Y-67500000I268750J0D01*
G01*
X191331250Y-67500000D01*
G75*
G02*
X191600000Y-67768750I0J-268750D01*
G01*
G37*
%TD*%
D16*
%TO.C,L1*%
X222750000Y-88000000D03*
X213250000Y-88000000D03*
%TD*%
%TO.C,D3*%
G36*
G01*
X199981250Y-60600000D02*
X199018750Y-60600000D01*
G75*
G02*
X198750000Y-60331250I0J268750D01*
G01*
X198750000Y-59793750D01*
G75*
G02*
X199018750Y-59525000I268750J0D01*
G01*
X199981250Y-59525000D01*
G75*
G02*
X200250000Y-59793750I0J-268750D01*
G01*
X200250000Y-60331250D01*
G75*
G02*
X199981250Y-60600000I-268750J0D01*
G01*
G37*
G36*
G01*
X199981250Y-62475000D02*
X199018750Y-62475000D01*
G75*
G02*
X198750000Y-62206250I0J268750D01*
G01*
X198750000Y-61668750D01*
G75*
G02*
X199018750Y-61400000I268750J0D01*
G01*
X199981250Y-61400000D01*
G75*
G02*
X200250000Y-61668750I0J-268750D01*
G01*
X200250000Y-62206250D01*
G75*
G02*
X199981250Y-62475000I-268750J0D01*
G01*
G37*
%TD*%
%TO.C,D2*%
G36*
G01*
X197731250Y-60600000D02*
X196768750Y-60600000D01*
G75*
G02*
X196500000Y-60331250I0J268750D01*
G01*
X196500000Y-59793750D01*
G75*
G02*
X196768750Y-59525000I268750J0D01*
G01*
X197731250Y-59525000D01*
G75*
G02*
X198000000Y-59793750I0J-268750D01*
G01*
X198000000Y-60331250D01*
G75*
G02*
X197731250Y-60600000I-268750J0D01*
G01*
G37*
G36*
G01*
X197731250Y-62475000D02*
X196768750Y-62475000D01*
G75*
G02*
X196500000Y-62206250I0J268750D01*
G01*
X196500000Y-61668750D01*
G75*
G02*
X196768750Y-61400000I268750J0D01*
G01*
X197731250Y-61400000D01*
G75*
G02*
X198000000Y-61668750I0J-268750D01*
G01*
X198000000Y-62206250D01*
G75*
G02*
X197731250Y-62475000I-268750J0D01*
G01*
G37*
%TD*%
D17*
%TO.C,D1*%
X207600000Y-93500000D03*
X210400000Y-93500000D03*
%TD*%
D18*
%TO.C,C2*%
X205750000Y-88500000D03*
D19*
X208250000Y-88500000D03*
%TD*%
D18*
%TO.C,C1*%
X200000000Y-99500000D03*
D19*
X202500000Y-99500000D03*
%TD*%
D20*
%TO.C,U2*%
X202400000Y-64500000D03*
X202400000Y-66500000D03*
X202400000Y-68500000D03*
X202400000Y-70500000D03*
X202400000Y-72500000D03*
X202400000Y-74500000D03*
X202400000Y-76500000D03*
X202400000Y-78500000D03*
D21*
X205000000Y-80000000D03*
X207000000Y-80000000D03*
X209000000Y-80000000D03*
X211000000Y-80000000D03*
X213000000Y-80000000D03*
X215000000Y-80000000D03*
D20*
X217600000Y-78500000D03*
X217600000Y-76500000D03*
X217600000Y-74500000D03*
X217600000Y-72500000D03*
X217600000Y-70500000D03*
X217600000Y-68500000D03*
X217600000Y-66500000D03*
X217600000Y-64500000D03*
%TD*%
D22*
%TO.C,H2*%
X228000000Y-103000000D03*
%TD*%
%TO.C,H1*%
X192000000Y-103000000D03*
%TD*%
%TO.C,C3*%
G36*
G01*
X201268750Y-83400000D02*
X202231250Y-83400000D01*
G75*
G02*
X202500000Y-83668750I0J-268750D01*
G01*
X202500000Y-84206250D01*
G75*
G02*
X202231250Y-84475000I-268750J0D01*
G01*
X201268750Y-84475000D01*
G75*
G02*
X201000000Y-84206250I0J268750D01*
G01*
X201000000Y-83668750D01*
G75*
G02*
X201268750Y-83400000I268750J0D01*
G01*
G37*
G36*
G01*
X201268750Y-81525000D02*
X202231250Y-81525000D01*
G75*
G02*
X202500000Y-81793750I0J-268750D01*
G01*
X202500000Y-82331250D01*
G75*
G02*
X202231250Y-82600000I-268750J0D01*
G01*
X201268750Y-82600000D01*
G75*
G02*
X201000000Y-82331250I0J268750D01*
G01*
X201000000Y-81793750D01*
G75*
G02*
X201268750Y-81525000I268750J0D01*
G01*
G37*
%TD*%
%TO.C,C4*%
G36*
G01*
X191481250Y-89475000D02*
X190518750Y-89475000D01*
G75*
G02*
X190250000Y-89206250I0J268750D01*
G01*
X190250000Y-88668750D01*
G75*
G02*
X190518750Y-88400000I268750J0D01*
G01*
X191481250Y-88400000D01*
G75*
G02*
X191750000Y-88668750I0J-268750D01*
G01*
X191750000Y-89206250D01*
G75*
G02*
X191481250Y-89475000I-268750J0D01*
G01*
G37*
G36*
G01*
X191481250Y-87600000D02*
X190518750Y-87600000D01*
G75*
G02*
X190250000Y-87331250I0J268750D01*
G01*
X190250000Y-86793750D01*
G75*
G02*
X190518750Y-86525000I268750J0D01*
G01*
X191481250Y-86525000D01*
G75*
G02*
X191750000Y-86793750I0J-268750D01*
G01*
X191750000Y-87331250D01*
G75*
G02*
X191481250Y-87600000I-268750J0D01*
G01*
G37*
%TD*%
%TO.C,C5*%
G36*
G01*
X192518750Y-88400000D02*
X193481250Y-88400000D01*
G75*
G02*
X193750000Y-88668750I0J-268750D01*
G01*
X193750000Y-89206250D01*
G75*
G02*
X193481250Y-89475000I-268750J0D01*
G01*
X192518750Y-89475000D01*
G75*
G02*
X192250000Y-89206250I0J268750D01*
G01*
X192250000Y-88668750D01*
G75*
G02*
X192518750Y-88400000I268750J0D01*
G01*
G37*
G36*
G01*
X192518750Y-86525000D02*
X193481250Y-86525000D01*
G75*
G02*
X193750000Y-86793750I0J-268750D01*
G01*
X193750000Y-87331250D01*
G75*
G02*
X193481250Y-87600000I-268750J0D01*
G01*
X192518750Y-87600000D01*
G75*
G02*
X192250000Y-87331250I0J268750D01*
G01*
X192250000Y-86793750D01*
G75*
G02*
X192518750Y-86525000I268750J0D01*
G01*
G37*
%TD*%
%TO.C,J1*%
G36*
G01*
X227714706Y-92600000D02*
X229285294Y-92600000D01*
G75*
G02*
X229550000Y-92864706I0J-264706D01*
G01*
X229550000Y-94135294D01*
G75*
G02*
X229285294Y-94400000I-264706J0D01*
G01*
X227714706Y-94400000D01*
G75*
G02*
X227450000Y-94135294I0J264706D01*
G01*
X227450000Y-92864706D01*
G75*
G02*
X227714706Y-92600000I264706J0D01*
G01*
G37*
D23*
X228500000Y-96000000D03*
%TD*%
D24*
%TO.C,J2*%
X204500000Y-83000000D03*
D25*
X207040000Y-83000000D03*
X209580000Y-83000000D03*
%TD*%
%TO.C,J5*%
G36*
G01*
X227739706Y-79100000D02*
X229260294Y-79100000D01*
G75*
G02*
X229525000Y-79364706I0J-264706D01*
G01*
X229525000Y-80635294D01*
G75*
G02*
X229260294Y-80900000I-264706J0D01*
G01*
X227739706Y-80900000D01*
G75*
G02*
X227475000Y-80635294I0J264706D01*
G01*
X227475000Y-79364706D01*
G75*
G02*
X227739706Y-79100000I264706J0D01*
G01*
G37*
D26*
X228500000Y-82500000D03*
X228500000Y-85000000D03*
X228500000Y-87500000D03*
%TD*%
D27*
%TO.C,Q1*%
X194550000Y-72500000D03*
X196450000Y-72500000D03*
X195500000Y-70500000D03*
%TD*%
%TO.C,Q2*%
X190550000Y-72500000D03*
X192450000Y-72500000D03*
X191500000Y-70500000D03*
%TD*%
D28*
%TO.C,Q3*%
X224000000Y-70450000D03*
X224000000Y-68550000D03*
X222000000Y-69500000D03*
%TD*%
%TO.C,Q4*%
X220500000Y-65750000D03*
X222500000Y-64800000D03*
X222500000Y-66700000D03*
%TD*%
%TO.C,Q5*%
X224000000Y-75950000D03*
X224000000Y-74050000D03*
X222000000Y-75000000D03*
%TD*%
%TO.C,Q6*%
X225500000Y-69500000D03*
X227500000Y-68550000D03*
X227500000Y-70450000D03*
%TD*%
%TO.C,Q7*%
X224000000Y-65750000D03*
X226000000Y-64800000D03*
X226000000Y-66700000D03*
%TD*%
%TO.C,Q8*%
X225500000Y-75000000D03*
X227500000Y-74050000D03*
X227500000Y-75950000D03*
%TD*%
%TO.C,R1*%
G36*
G01*
X201981250Y-88600000D02*
X201018750Y-88600000D01*
G75*
G02*
X200750000Y-88331250I0J268750D01*
G01*
X200750000Y-87793750D01*
G75*
G02*
X201018750Y-87525000I268750J0D01*
G01*
X201981250Y-87525000D01*
G75*
G02*
X202250000Y-87793750I0J-268750D01*
G01*
X202250000Y-88331250D01*
G75*
G02*
X201981250Y-88600000I-268750J0D01*
G01*
G37*
G36*
G01*
X201981250Y-90475000D02*
X201018750Y-90475000D01*
G75*
G02*
X200750000Y-90206250I0J268750D01*
G01*
X200750000Y-89668750D01*
G75*
G02*
X201018750Y-89400000I268750J0D01*
G01*
X201981250Y-89400000D01*
G75*
G02*
X202250000Y-89668750I0J-268750D01*
G01*
X202250000Y-90206250D01*
G75*
G02*
X201981250Y-90475000I-268750J0D01*
G01*
G37*
%TD*%
%TO.C,R2*%
G36*
G01*
X191900000Y-74981250D02*
X191900000Y-74018750D01*
G75*
G02*
X192168750Y-73750000I268750J0D01*
G01*
X192706250Y-73750000D01*
G75*
G02*
X192975000Y-74018750I0J-268750D01*
G01*
X192975000Y-74981250D01*
G75*
G02*
X192706250Y-75250000I-268750J0D01*
G01*
X192168750Y-75250000D01*
G75*
G02*
X191900000Y-74981250I0J268750D01*
G01*
G37*
G36*
G01*
X190025000Y-74981250D02*
X190025000Y-74018750D01*
G75*
G02*
X190293750Y-73750000I268750J0D01*
G01*
X190831250Y-73750000D01*
G75*
G02*
X191100000Y-74018750I0J-268750D01*
G01*
X191100000Y-74981250D01*
G75*
G02*
X190831250Y-75250000I-268750J0D01*
G01*
X190293750Y-75250000D01*
G75*
G02*
X190025000Y-74981250I0J268750D01*
G01*
G37*
%TD*%
%TO.C,R3*%
G36*
G01*
X199268750Y-71587500D02*
X200231250Y-71587500D01*
G75*
G02*
X200500000Y-71856250I0J-268750D01*
G01*
X200500000Y-72393750D01*
G75*
G02*
X200231250Y-72662500I-268750J0D01*
G01*
X199268750Y-72662500D01*
G75*
G02*
X199000000Y-72393750I0J268750D01*
G01*
X199000000Y-71856250D01*
G75*
G02*
X199268750Y-71587500I268750J0D01*
G01*
G37*
G36*
G01*
X199268750Y-73462500D02*
X200231250Y-73462500D01*
G75*
G02*
X200500000Y-73731250I0J-268750D01*
G01*
X200500000Y-74268750D01*
G75*
G02*
X200231250Y-74537500I-268750J0D01*
G01*
X199268750Y-74537500D01*
G75*
G02*
X199000000Y-74268750I0J268750D01*
G01*
X199000000Y-73731250D01*
G75*
G02*
X199268750Y-73462500I268750J0D01*
G01*
G37*
%TD*%
%TO.C,R4*%
G36*
G01*
X221900000Y-78481250D02*
X221900000Y-77518750D01*
G75*
G02*
X222168750Y-77250000I268750J0D01*
G01*
X222706250Y-77250000D01*
G75*
G02*
X222975000Y-77518750I0J-268750D01*
G01*
X222975000Y-78481250D01*
G75*
G02*
X222706250Y-78750000I-268750J0D01*
G01*
X222168750Y-78750000D01*
G75*
G02*
X221900000Y-78481250I0J268750D01*
G01*
G37*
G36*
G01*
X220025000Y-78481250D02*
X220025000Y-77518750D01*
G75*
G02*
X220293750Y-77250000I268750J0D01*
G01*
X220831250Y-77250000D01*
G75*
G02*
X221100000Y-77518750I0J-268750D01*
G01*
X221100000Y-78481250D01*
G75*
G02*
X220831250Y-78750000I-268750J0D01*
G01*
X220293750Y-78750000D01*
G75*
G02*
X220025000Y-78481250I0J268750D01*
G01*
G37*
%TD*%
%TO.C,R5*%
G36*
G01*
X222975000Y-79518750D02*
X222975000Y-80481250D01*
G75*
G02*
X222706250Y-80750000I-268750J0D01*
G01*
X222168750Y-80750000D01*
G75*
G02*
X221900000Y-80481250I0J268750D01*
G01*
X221900000Y-79518750D01*
G75*
G02*
X222168750Y-79250000I268750J0D01*
G01*
X222706250Y-79250000D01*
G75*
G02*
X222975000Y-79518750I0J-268750D01*
G01*
G37*
G36*
G01*
X221100000Y-79518750D02*
X221100000Y-80481250D01*
G75*
G02*
X220831250Y-80750000I-268750J0D01*
G01*
X220293750Y-80750000D01*
G75*
G02*
X220025000Y-80481250I0J268750D01*
G01*
X220025000Y-79518750D01*
G75*
G02*
X220293750Y-79250000I268750J0D01*
G01*
X220831250Y-79250000D01*
G75*
G02*
X221100000Y-79518750I0J-268750D01*
G01*
G37*
%TD*%
%TO.C,R6*%
G36*
G01*
X196975000Y-74018750D02*
X196975000Y-74981250D01*
G75*
G02*
X196706250Y-75250000I-268750J0D01*
G01*
X196168750Y-75250000D01*
G75*
G02*
X195900000Y-74981250I0J268750D01*
G01*
X195900000Y-74018750D01*
G75*
G02*
X196168750Y-73750000I268750J0D01*
G01*
X196706250Y-73750000D01*
G75*
G02*
X196975000Y-74018750I0J-268750D01*
G01*
G37*
G36*
G01*
X195100000Y-74018750D02*
X195100000Y-74981250D01*
G75*
G02*
X194831250Y-75250000I-268750J0D01*
G01*
X194293750Y-75250000D01*
G75*
G02*
X194025000Y-74981250I0J268750D01*
G01*
X194025000Y-74018750D01*
G75*
G02*
X194293750Y-73750000I268750J0D01*
G01*
X194831250Y-73750000D01*
G75*
G02*
X195100000Y-74018750I0J-268750D01*
G01*
G37*
%TD*%
%TO.C,R7*%
G36*
G01*
X200231250Y-68850000D02*
X199268750Y-68850000D01*
G75*
G02*
X199000000Y-68581250I0J268750D01*
G01*
X199000000Y-68043750D01*
G75*
G02*
X199268750Y-67775000I268750J0D01*
G01*
X200231250Y-67775000D01*
G75*
G02*
X200500000Y-68043750I0J-268750D01*
G01*
X200500000Y-68581250D01*
G75*
G02*
X200231250Y-68850000I-268750J0D01*
G01*
G37*
G36*
G01*
X200231250Y-70725000D02*
X199268750Y-70725000D01*
G75*
G02*
X199000000Y-70456250I0J268750D01*
G01*
X199000000Y-69918750D01*
G75*
G02*
X199268750Y-69650000I268750J0D01*
G01*
X200231250Y-69650000D01*
G75*
G02*
X200500000Y-69918750I0J-268750D01*
G01*
X200500000Y-70456250D01*
G75*
G02*
X200231250Y-70725000I-268750J0D01*
G01*
G37*
%TD*%
%TO.C,R8*%
G36*
G01*
X219768750Y-68025000D02*
X220731250Y-68025000D01*
G75*
G02*
X221000000Y-68293750I0J-268750D01*
G01*
X221000000Y-68831250D01*
G75*
G02*
X220731250Y-69100000I-268750J0D01*
G01*
X219768750Y-69100000D01*
G75*
G02*
X219500000Y-68831250I0J268750D01*
G01*
X219500000Y-68293750D01*
G75*
G02*
X219768750Y-68025000I268750J0D01*
G01*
G37*
G36*
G01*
X219768750Y-69900000D02*
X220731250Y-69900000D01*
G75*
G02*
X221000000Y-70168750I0J-268750D01*
G01*
X221000000Y-70706250D01*
G75*
G02*
X220731250Y-70975000I-268750J0D01*
G01*
X219768750Y-70975000D01*
G75*
G02*
X219500000Y-70706250I0J268750D01*
G01*
X219500000Y-70168750D01*
G75*
G02*
X219768750Y-69900000I268750J0D01*
G01*
G37*
%TD*%
%TO.C,R9*%
G36*
G01*
X221900000Y-63231250D02*
X221900000Y-62268750D01*
G75*
G02*
X222168750Y-62000000I268750J0D01*
G01*
X222706250Y-62000000D01*
G75*
G02*
X222975000Y-62268750I0J-268750D01*
G01*
X222975000Y-63231250D01*
G75*
G02*
X222706250Y-63500000I-268750J0D01*
G01*
X222168750Y-63500000D01*
G75*
G02*
X221900000Y-63231250I0J268750D01*
G01*
G37*
G36*
G01*
X220025000Y-63231250D02*
X220025000Y-62268750D01*
G75*
G02*
X220293750Y-62000000I268750J0D01*
G01*
X220831250Y-62000000D01*
G75*
G02*
X221100000Y-62268750I0J-268750D01*
G01*
X221100000Y-63231250D01*
G75*
G02*
X220831250Y-63500000I-268750J0D01*
G01*
X220293750Y-63500000D01*
G75*
G02*
X220025000Y-63231250I0J268750D01*
G01*
G37*
%TD*%
%TO.C,R10*%
G36*
G01*
X219768750Y-73525000D02*
X220731250Y-73525000D01*
G75*
G02*
X221000000Y-73793750I0J-268750D01*
G01*
X221000000Y-74331250D01*
G75*
G02*
X220731250Y-74600000I-268750J0D01*
G01*
X219768750Y-74600000D01*
G75*
G02*
X219500000Y-74331250I0J268750D01*
G01*
X219500000Y-73793750D01*
G75*
G02*
X219768750Y-73525000I268750J0D01*
G01*
G37*
G36*
G01*
X219768750Y-75400000D02*
X220731250Y-75400000D01*
G75*
G02*
X221000000Y-75668750I0J-268750D01*
G01*
X221000000Y-76206250D01*
G75*
G02*
X220731250Y-76475000I-268750J0D01*
G01*
X219768750Y-76475000D01*
G75*
G02*
X219500000Y-76206250I0J268750D01*
G01*
X219500000Y-75668750D01*
G75*
G02*
X219768750Y-75400000I268750J0D01*
G01*
G37*
%TD*%
%TO.C,R11*%
G36*
G01*
X229731250Y-69100000D02*
X228768750Y-69100000D01*
G75*
G02*
X228500000Y-68831250I0J268750D01*
G01*
X228500000Y-68293750D01*
G75*
G02*
X228768750Y-68025000I268750J0D01*
G01*
X229731250Y-68025000D01*
G75*
G02*
X230000000Y-68293750I0J-268750D01*
G01*
X230000000Y-68831250D01*
G75*
G02*
X229731250Y-69100000I-268750J0D01*
G01*
G37*
G36*
G01*
X229731250Y-70975000D02*
X228768750Y-70975000D01*
G75*
G02*
X228500000Y-70706250I0J268750D01*
G01*
X228500000Y-70168750D01*
G75*
G02*
X228768750Y-69900000I268750J0D01*
G01*
X229731250Y-69900000D01*
G75*
G02*
X230000000Y-70168750I0J-268750D01*
G01*
X230000000Y-70706250D01*
G75*
G02*
X229731250Y-70975000I-268750J0D01*
G01*
G37*
%TD*%
%TO.C,R12*%
G36*
G01*
X223462500Y-63231250D02*
X223462500Y-62268750D01*
G75*
G02*
X223731250Y-62000000I268750J0D01*
G01*
X224268750Y-62000000D01*
G75*
G02*
X224537500Y-62268750I0J-268750D01*
G01*
X224537500Y-63231250D01*
G75*
G02*
X224268750Y-63500000I-268750J0D01*
G01*
X223731250Y-63500000D01*
G75*
G02*
X223462500Y-63231250I0J268750D01*
G01*
G37*
G36*
G01*
X225337500Y-63231250D02*
X225337500Y-62268750D01*
G75*
G02*
X225606250Y-62000000I268750J0D01*
G01*
X226143750Y-62000000D01*
G75*
G02*
X226412500Y-62268750I0J-268750D01*
G01*
X226412500Y-63231250D01*
G75*
G02*
X226143750Y-63500000I-268750J0D01*
G01*
X225606250Y-63500000D01*
G75*
G02*
X225337500Y-63231250I0J268750D01*
G01*
G37*
%TD*%
%TO.C,R13*%
G36*
G01*
X229731250Y-74600000D02*
X228768750Y-74600000D01*
G75*
G02*
X228500000Y-74331250I0J268750D01*
G01*
X228500000Y-73793750D01*
G75*
G02*
X228768750Y-73525000I268750J0D01*
G01*
X229731250Y-73525000D01*
G75*
G02*
X230000000Y-73793750I0J-268750D01*
G01*
X230000000Y-74331250D01*
G75*
G02*
X229731250Y-74600000I-268750J0D01*
G01*
G37*
G36*
G01*
X229731250Y-76475000D02*
X228768750Y-76475000D01*
G75*
G02*
X228500000Y-76206250I0J268750D01*
G01*
X228500000Y-75668750D01*
G75*
G02*
X228768750Y-75400000I268750J0D01*
G01*
X229731250Y-75400000D01*
G75*
G02*
X230000000Y-75668750I0J-268750D01*
G01*
X230000000Y-76206250D01*
G75*
G02*
X229731250Y-76475000I-268750J0D01*
G01*
G37*
%TD*%
%TO.C,R14*%
G36*
G01*
X226100000Y-71768750D02*
X226100000Y-72731250D01*
G75*
G02*
X225831250Y-73000000I-268750J0D01*
G01*
X225293750Y-73000000D01*
G75*
G02*
X225025000Y-72731250I0J268750D01*
G01*
X225025000Y-71768750D01*
G75*
G02*
X225293750Y-71500000I268750J0D01*
G01*
X225831250Y-71500000D01*
G75*
G02*
X226100000Y-71768750I0J-268750D01*
G01*
G37*
G36*
G01*
X227975000Y-71768750D02*
X227975000Y-72731250D01*
G75*
G02*
X227706250Y-73000000I-268750J0D01*
G01*
X227168750Y-73000000D01*
G75*
G02*
X226900000Y-72731250I0J268750D01*
G01*
X226900000Y-71768750D01*
G75*
G02*
X227168750Y-71500000I268750J0D01*
G01*
X227706250Y-71500000D01*
G75*
G02*
X227975000Y-71768750I0J-268750D01*
G01*
G37*
%TD*%
%TO.C,R15*%
G36*
G01*
X220025000Y-61231250D02*
X220025000Y-60268750D01*
G75*
G02*
X220293750Y-60000000I268750J0D01*
G01*
X220831250Y-60000000D01*
G75*
G02*
X221100000Y-60268750I0J-268750D01*
G01*
X221100000Y-61231250D01*
G75*
G02*
X220831250Y-61500000I-268750J0D01*
G01*
X220293750Y-61500000D01*
G75*
G02*
X220025000Y-61231250I0J268750D01*
G01*
G37*
G36*
G01*
X221900000Y-61231250D02*
X221900000Y-60268750D01*
G75*
G02*
X222168750Y-60000000I268750J0D01*
G01*
X222706250Y-60000000D01*
G75*
G02*
X222975000Y-60268750I0J-268750D01*
G01*
X222975000Y-61231250D01*
G75*
G02*
X222706250Y-61500000I-268750J0D01*
G01*
X222168750Y-61500000D01*
G75*
G02*
X221900000Y-61231250I0J268750D01*
G01*
G37*
%TD*%
%TO.C,R16*%
G36*
G01*
X221525000Y-72731250D02*
X221525000Y-71768750D01*
G75*
G02*
X221793750Y-71500000I268750J0D01*
G01*
X222331250Y-71500000D01*
G75*
G02*
X222600000Y-71768750I0J-268750D01*
G01*
X222600000Y-72731250D01*
G75*
G02*
X222331250Y-73000000I-268750J0D01*
G01*
X221793750Y-73000000D01*
G75*
G02*
X221525000Y-72731250I0J268750D01*
G01*
G37*
G36*
G01*
X223400000Y-72731250D02*
X223400000Y-71768750D01*
G75*
G02*
X223668750Y-71500000I268750J0D01*
G01*
X224206250Y-71500000D01*
G75*
G02*
X224475000Y-71768750I0J-268750D01*
G01*
X224475000Y-72731250D01*
G75*
G02*
X224206250Y-73000000I-268750J0D01*
G01*
X223668750Y-73000000D01*
G75*
G02*
X223400000Y-72731250I0J268750D01*
G01*
G37*
%TD*%
D29*
%TO.C,U1*%
X210225000Y-97100000D03*
X210225000Y-98800000D03*
X210225000Y-100500000D03*
X210225000Y-102200000D03*
X210225000Y-103900000D03*
D30*
X219375000Y-100500000D03*
%TD*%
%TO.C,U3*%
G36*
G01*
X195100000Y-89337500D02*
X195100000Y-89162500D01*
G75*
G02*
X195187500Y-89075000I87500J0D01*
G01*
X195937500Y-89075000D01*
G75*
G02*
X196025000Y-89162500I0J-87500D01*
G01*
X196025000Y-89337500D01*
G75*
G02*
X195937500Y-89425000I-87500J0D01*
G01*
X195187500Y-89425000D01*
G75*
G02*
X195100000Y-89337500I0J87500D01*
G01*
G37*
G36*
G01*
X195100000Y-89837500D02*
X195100000Y-89662500D01*
G75*
G02*
X195187500Y-89575000I87500J0D01*
G01*
X195937500Y-89575000D01*
G75*
G02*
X196025000Y-89662500I0J-87500D01*
G01*
X196025000Y-89837500D01*
G75*
G02*
X195937500Y-89925000I-87500J0D01*
G01*
X195187500Y-89925000D01*
G75*
G02*
X195100000Y-89837500I0J87500D01*
G01*
G37*
G36*
G01*
X195100000Y-90337500D02*
X195100000Y-90162500D01*
G75*
G02*
X195187500Y-90075000I87500J0D01*
G01*
X195937500Y-90075000D01*
G75*
G02*
X196025000Y-90162500I0J-87500D01*
G01*
X196025000Y-90337500D01*
G75*
G02*
X195937500Y-90425000I-87500J0D01*
G01*
X195187500Y-90425000D01*
G75*
G02*
X195100000Y-90337500I0J87500D01*
G01*
G37*
G36*
G01*
X195100000Y-90837500D02*
X195100000Y-90662500D01*
G75*
G02*
X195187500Y-90575000I87500J0D01*
G01*
X195937500Y-90575000D01*
G75*
G02*
X196025000Y-90662500I0J-87500D01*
G01*
X196025000Y-90837500D01*
G75*
G02*
X195937500Y-90925000I-87500J0D01*
G01*
X195187500Y-90925000D01*
G75*
G02*
X195100000Y-90837500I0J87500D01*
G01*
G37*
G36*
G01*
X195100000Y-91337500D02*
X195100000Y-91162500D01*
G75*
G02*
X195187500Y-91075000I87500J0D01*
G01*
X195937500Y-91075000D01*
G75*
G02*
X196025000Y-91162500I0J-87500D01*
G01*
X196025000Y-91337500D01*
G75*
G02*
X195937500Y-91425000I-87500J0D01*
G01*
X195187500Y-91425000D01*
G75*
G02*
X195100000Y-91337500I0J87500D01*
G01*
G37*
G36*
G01*
X195100000Y-91837500D02*
X195100000Y-91662500D01*
G75*
G02*
X195187500Y-91575000I87500J0D01*
G01*
X195937500Y-91575000D01*
G75*
G02*
X196025000Y-91662500I0J-87500D01*
G01*
X196025000Y-91837500D01*
G75*
G02*
X195937500Y-91925000I-87500J0D01*
G01*
X195187500Y-91925000D01*
G75*
G02*
X195100000Y-91837500I0J87500D01*
G01*
G37*
G36*
G01*
X196075000Y-92812500D02*
X196075000Y-92062500D01*
G75*
G02*
X196162500Y-91975000I87500J0D01*
G01*
X196337500Y-91975000D01*
G75*
G02*
X196425000Y-92062500I0J-87500D01*
G01*
X196425000Y-92812500D01*
G75*
G02*
X196337500Y-92900000I-87500J0D01*
G01*
X196162500Y-92900000D01*
G75*
G02*
X196075000Y-92812500I0J87500D01*
G01*
G37*
G36*
G01*
X196575000Y-92812500D02*
X196575000Y-92062500D01*
G75*
G02*
X196662500Y-91975000I87500J0D01*
G01*
X196837500Y-91975000D01*
G75*
G02*
X196925000Y-92062500I0J-87500D01*
G01*
X196925000Y-92812500D01*
G75*
G02*
X196837500Y-92900000I-87500J0D01*
G01*
X196662500Y-92900000D01*
G75*
G02*
X196575000Y-92812500I0J87500D01*
G01*
G37*
G36*
G01*
X197075000Y-92812500D02*
X197075000Y-92062500D01*
G75*
G02*
X197162500Y-91975000I87500J0D01*
G01*
X197337500Y-91975000D01*
G75*
G02*
X197425000Y-92062500I0J-87500D01*
G01*
X197425000Y-92812500D01*
G75*
G02*
X197337500Y-92900000I-87500J0D01*
G01*
X197162500Y-92900000D01*
G75*
G02*
X197075000Y-92812500I0J87500D01*
G01*
G37*
G36*
G01*
X197575000Y-92812500D02*
X197575000Y-92062500D01*
G75*
G02*
X197662500Y-91975000I87500J0D01*
G01*
X197837500Y-91975000D01*
G75*
G02*
X197925000Y-92062500I0J-87500D01*
G01*
X197925000Y-92812500D01*
G75*
G02*
X197837500Y-92900000I-87500J0D01*
G01*
X197662500Y-92900000D01*
G75*
G02*
X197575000Y-92812500I0J87500D01*
G01*
G37*
G36*
G01*
X198075000Y-92812500D02*
X198075000Y-92062500D01*
G75*
G02*
X198162500Y-91975000I87500J0D01*
G01*
X198337500Y-91975000D01*
G75*
G02*
X198425000Y-92062500I0J-87500D01*
G01*
X198425000Y-92812500D01*
G75*
G02*
X198337500Y-92900000I-87500J0D01*
G01*
X198162500Y-92900000D01*
G75*
G02*
X198075000Y-92812500I0J87500D01*
G01*
G37*
G36*
G01*
X198575000Y-92812500D02*
X198575000Y-92062500D01*
G75*
G02*
X198662500Y-91975000I87500J0D01*
G01*
X198837500Y-91975000D01*
G75*
G02*
X198925000Y-92062500I0J-87500D01*
G01*
X198925000Y-92812500D01*
G75*
G02*
X198837500Y-92900000I-87500J0D01*
G01*
X198662500Y-92900000D01*
G75*
G02*
X198575000Y-92812500I0J87500D01*
G01*
G37*
G36*
G01*
X198975000Y-91837500D02*
X198975000Y-91662500D01*
G75*
G02*
X199062500Y-91575000I87500J0D01*
G01*
X199812500Y-91575000D01*
G75*
G02*
X199900000Y-91662500I0J-87500D01*
G01*
X199900000Y-91837500D01*
G75*
G02*
X199812500Y-91925000I-87500J0D01*
G01*
X199062500Y-91925000D01*
G75*
G02*
X198975000Y-91837500I0J87500D01*
G01*
G37*
G36*
G01*
X198975000Y-91337500D02*
X198975000Y-91162500D01*
G75*
G02*
X199062500Y-91075000I87500J0D01*
G01*
X199812500Y-91075000D01*
G75*
G02*
X199900000Y-91162500I0J-87500D01*
G01*
X199900000Y-91337500D01*
G75*
G02*
X199812500Y-91425000I-87500J0D01*
G01*
X199062500Y-91425000D01*
G75*
G02*
X198975000Y-91337500I0J87500D01*
G01*
G37*
G36*
G01*
X198975000Y-90837500D02*
X198975000Y-90662500D01*
G75*
G02*
X199062500Y-90575000I87500J0D01*
G01*
X199812500Y-90575000D01*
G75*
G02*
X199900000Y-90662500I0J-87500D01*
G01*
X199900000Y-90837500D01*
G75*
G02*
X199812500Y-90925000I-87500J0D01*
G01*
X199062500Y-90925000D01*
G75*
G02*
X198975000Y-90837500I0J87500D01*
G01*
G37*
G36*
G01*
X198975000Y-90337500D02*
X198975000Y-90162500D01*
G75*
G02*
X199062500Y-90075000I87500J0D01*
G01*
X199812500Y-90075000D01*
G75*
G02*
X199900000Y-90162500I0J-87500D01*
G01*
X199900000Y-90337500D01*
G75*
G02*
X199812500Y-90425000I-87500J0D01*
G01*
X199062500Y-90425000D01*
G75*
G02*
X198975000Y-90337500I0J87500D01*
G01*
G37*
G36*
G01*
X198975000Y-89837500D02*
X198975000Y-89662500D01*
G75*
G02*
X199062500Y-89575000I87500J0D01*
G01*
X199812500Y-89575000D01*
G75*
G02*
X199900000Y-89662500I0J-87500D01*
G01*
X199900000Y-89837500D01*
G75*
G02*
X199812500Y-89925000I-87500J0D01*
G01*
X199062500Y-89925000D01*
G75*
G02*
X198975000Y-89837500I0J87500D01*
G01*
G37*
G36*
G01*
X198975000Y-89337500D02*
X198975000Y-89162500D01*
G75*
G02*
X199062500Y-89075000I87500J0D01*
G01*
X199812500Y-89075000D01*
G75*
G02*
X199900000Y-89162500I0J-87500D01*
G01*
X199900000Y-89337500D01*
G75*
G02*
X199812500Y-89425000I-87500J0D01*
G01*
X199062500Y-89425000D01*
G75*
G02*
X198975000Y-89337500I0J87500D01*
G01*
G37*
G36*
G01*
X198575000Y-88937500D02*
X198575000Y-88187500D01*
G75*
G02*
X198662500Y-88100000I87500J0D01*
G01*
X198837500Y-88100000D01*
G75*
G02*
X198925000Y-88187500I0J-87500D01*
G01*
X198925000Y-88937500D01*
G75*
G02*
X198837500Y-89025000I-87500J0D01*
G01*
X198662500Y-89025000D01*
G75*
G02*
X198575000Y-88937500I0J87500D01*
G01*
G37*
G36*
G01*
X198075000Y-88937500D02*
X198075000Y-88187500D01*
G75*
G02*
X198162500Y-88100000I87500J0D01*
G01*
X198337500Y-88100000D01*
G75*
G02*
X198425000Y-88187500I0J-87500D01*
G01*
X198425000Y-88937500D01*
G75*
G02*
X198337500Y-89025000I-87500J0D01*
G01*
X198162500Y-89025000D01*
G75*
G02*
X198075000Y-88937500I0J87500D01*
G01*
G37*
G36*
G01*
X197575000Y-88937500D02*
X197575000Y-88187500D01*
G75*
G02*
X197662500Y-88100000I87500J0D01*
G01*
X197837500Y-88100000D01*
G75*
G02*
X197925000Y-88187500I0J-87500D01*
G01*
X197925000Y-88937500D01*
G75*
G02*
X197837500Y-89025000I-87500J0D01*
G01*
X197662500Y-89025000D01*
G75*
G02*
X197575000Y-88937500I0J87500D01*
G01*
G37*
G36*
G01*
X197075000Y-88937500D02*
X197075000Y-88187500D01*
G75*
G02*
X197162500Y-88100000I87500J0D01*
G01*
X197337500Y-88100000D01*
G75*
G02*
X197425000Y-88187500I0J-87500D01*
G01*
X197425000Y-88937500D01*
G75*
G02*
X197337500Y-89025000I-87500J0D01*
G01*
X197162500Y-89025000D01*
G75*
G02*
X197075000Y-88937500I0J87500D01*
G01*
G37*
G36*
G01*
X196575000Y-88937500D02*
X196575000Y-88187500D01*
G75*
G02*
X196662500Y-88100000I87500J0D01*
G01*
X196837500Y-88100000D01*
G75*
G02*
X196925000Y-88187500I0J-87500D01*
G01*
X196925000Y-88937500D01*
G75*
G02*
X196837500Y-89025000I-87500J0D01*
G01*
X196662500Y-89025000D01*
G75*
G02*
X196575000Y-88937500I0J87500D01*
G01*
G37*
G36*
G01*
X196075000Y-88937500D02*
X196075000Y-88187500D01*
G75*
G02*
X196162500Y-88100000I87500J0D01*
G01*
X196337500Y-88100000D01*
G75*
G02*
X196425000Y-88187500I0J-87500D01*
G01*
X196425000Y-88937500D01*
G75*
G02*
X196337500Y-89025000I-87500J0D01*
G01*
X196162500Y-89025000D01*
G75*
G02*
X196075000Y-88937500I0J87500D01*
G01*
G37*
D31*
X197500000Y-90500000D03*
%TD*%
M02*
