M48
; DRILL file {KiCad (5.1.6-0-10_14)} date Tuesday, July 28, 2020 at 09:08:05 AM
; FORMAT={-:-/ absolute / inch / decimal}
; #@! TF.CreationDate,2020-07-28T09:08:05+02:00
; #@! TF.GenerationSoftware,Kicad,Pcbnew,(5.1.6-0-10_14)
; #@! TF.FileFunction,Plated,1,2,PTH
FMAT,2
INCH
T1C0.0157
T2C0.0236
T3C0.0315
T4C0.0335
T5C0.0374
T6C0.0394
%
G90
G05
T1
X7.5394Y-2.8839
X7.5716Y-2.7438
X7.6181Y-3.5728
X7.6575Y-3.4252
X7.6575Y-3.5039
X7.6575Y-3.6024
X7.6575Y-3.6407
X7.6575Y-3.7008
X7.7854Y-2.6969
X7.812Y-2.8543
X7.8203Y-2.7809
X7.8543Y-3.4843
X7.8642Y-2.313
X7.9429Y-3.1594
X7.9429Y-3.3661
X8.0512Y-2.9331
X8.0512Y-3.002
X8.0857Y-2.8889
X8.1201Y-2.5984
X8.1398Y-4.0846
X8.1496Y-3.8287
X8.4733Y-2.7642
X8.4941Y-2.7953
X8.671Y-2.875
X8.6713Y-2.8179
X8.6713Y-3.4646
X8.6811Y-2.3228
X8.7205Y-2.5492
X8.7697Y-2.9134
X8.8189Y-3.0709
X8.9445Y-2.647
X8.989Y-2.8232
X8.9961Y-2.6476
X9.0551Y-2.8543
T3
X8.1004Y-3.4843
X8.1988Y-3.4843
X7.874Y-3.9173
X7.9724Y-3.9173
T4
X7.5871Y-3.622
X7.5871Y-3.8189
T5
X8.9961Y-3.1496
X8.9961Y-3.248
X8.9961Y-3.3465
X8.9961Y-3.4449
T6
X8.0512Y-3.2677
X8.1512Y-3.2677
X8.2512Y-3.2677
X8.9961Y-3.6811
X8.9961Y-3.7795
T2
G00X7.467Y-3.5827
M15
G01X7.4946Y-3.5827
M16
G05
G00X7.4946Y-3.8583
M15
G01X7.467Y-3.8583
M16
G05
T0
M30
