%TF.GenerationSoftware,KiCad,Pcbnew,(5.1.6-0-10_14)*%
%TF.CreationDate,2020-07-27T20:59:48+02:00*%
%TF.ProjectId,DoorLightController,446f6f72-4c69-4676-9874-436f6e74726f,rev?*%
%TF.SameCoordinates,Original*%
%TF.FileFunction,Paste,Top*%
%TF.FilePolarity,Positive*%
%FSLAX46Y46*%
G04 Gerber Fmt 4.6, Leading zero omitted, Abs format (unit mm)*
G04 Created by KiCad (PCBNEW (5.1.6-0-10_14)) date 2020-07-27 20:59:48*
%MOMM*%
%LPD*%
G01*
G04 APERTURE LIST*
%ADD10R,1.900000X1.500000*%
%ADD11R,1.350000X0.400000*%
%ADD12R,2.000000X1.600000*%
%ADD13R,3.000000X5.600000*%
%ADD14R,1.100000X1.100000*%
%ADD15R,2.500000X1.000000*%
%ADD16R,1.000000X1.800000*%
%ADD17R,0.800000X0.900000*%
%ADD18R,0.900000X0.800000*%
%ADD19R,4.600000X1.100000*%
%ADD20R,4.550000X5.250000*%
G04 APERTURE END LIST*
D10*
%TO.C,J3*%
X190012500Y-93500000D03*
D11*
X192712500Y-94500000D03*
X192712500Y-95150000D03*
X192712500Y-95800000D03*
X192712500Y-93200000D03*
X192712500Y-93850000D03*
D10*
X190012500Y-95500000D03*
%TD*%
D12*
%TO.C,SW1*%
X199450000Y-65000000D03*
X194050000Y-65000000D03*
%TD*%
%TO.C,R18*%
G36*
G01*
X195050000Y-67793750D02*
X195050000Y-68706250D01*
G75*
G02*
X194806250Y-68950000I-243750J0D01*
G01*
X194318750Y-68950000D01*
G75*
G02*
X194075000Y-68706250I0J243750D01*
G01*
X194075000Y-67793750D01*
G75*
G02*
X194318750Y-67550000I243750J0D01*
G01*
X194806250Y-67550000D01*
G75*
G02*
X195050000Y-67793750I0J-243750D01*
G01*
G37*
G36*
G01*
X196925000Y-67793750D02*
X196925000Y-68706250D01*
G75*
G02*
X196681250Y-68950000I-243750J0D01*
G01*
X196193750Y-68950000D01*
G75*
G02*
X195950000Y-68706250I0J243750D01*
G01*
X195950000Y-67793750D01*
G75*
G02*
X196193750Y-67550000I243750J0D01*
G01*
X196681250Y-67550000D01*
G75*
G02*
X196925000Y-67793750I0J-243750D01*
G01*
G37*
%TD*%
%TO.C,R17*%
G36*
G01*
X193425000Y-67793750D02*
X193425000Y-68706250D01*
G75*
G02*
X193181250Y-68950000I-243750J0D01*
G01*
X192693750Y-68950000D01*
G75*
G02*
X192450000Y-68706250I0J243750D01*
G01*
X192450000Y-67793750D01*
G75*
G02*
X192693750Y-67550000I243750J0D01*
G01*
X193181250Y-67550000D01*
G75*
G02*
X193425000Y-67793750I0J-243750D01*
G01*
G37*
G36*
G01*
X191550000Y-67793750D02*
X191550000Y-68706250D01*
G75*
G02*
X191306250Y-68950000I-243750J0D01*
G01*
X190818750Y-68950000D01*
G75*
G02*
X190575000Y-68706250I0J243750D01*
G01*
X190575000Y-67793750D01*
G75*
G02*
X190818750Y-67550000I243750J0D01*
G01*
X191306250Y-67550000D01*
G75*
G02*
X191550000Y-67793750I0J-243750D01*
G01*
G37*
%TD*%
D13*
%TO.C,L1*%
X222750000Y-88000000D03*
X213250000Y-88000000D03*
%TD*%
%TO.C,D3*%
G36*
G01*
X199956250Y-60550000D02*
X199043750Y-60550000D01*
G75*
G02*
X198800000Y-60306250I0J243750D01*
G01*
X198800000Y-59818750D01*
G75*
G02*
X199043750Y-59575000I243750J0D01*
G01*
X199956250Y-59575000D01*
G75*
G02*
X200200000Y-59818750I0J-243750D01*
G01*
X200200000Y-60306250D01*
G75*
G02*
X199956250Y-60550000I-243750J0D01*
G01*
G37*
G36*
G01*
X199956250Y-62425000D02*
X199043750Y-62425000D01*
G75*
G02*
X198800000Y-62181250I0J243750D01*
G01*
X198800000Y-61693750D01*
G75*
G02*
X199043750Y-61450000I243750J0D01*
G01*
X199956250Y-61450000D01*
G75*
G02*
X200200000Y-61693750I0J-243750D01*
G01*
X200200000Y-62181250D01*
G75*
G02*
X199956250Y-62425000I-243750J0D01*
G01*
G37*
%TD*%
%TO.C,D2*%
G36*
G01*
X197706250Y-60550000D02*
X196793750Y-60550000D01*
G75*
G02*
X196550000Y-60306250I0J243750D01*
G01*
X196550000Y-59818750D01*
G75*
G02*
X196793750Y-59575000I243750J0D01*
G01*
X197706250Y-59575000D01*
G75*
G02*
X197950000Y-59818750I0J-243750D01*
G01*
X197950000Y-60306250D01*
G75*
G02*
X197706250Y-60550000I-243750J0D01*
G01*
G37*
G36*
G01*
X197706250Y-62425000D02*
X196793750Y-62425000D01*
G75*
G02*
X196550000Y-62181250I0J243750D01*
G01*
X196550000Y-61693750D01*
G75*
G02*
X196793750Y-61450000I243750J0D01*
G01*
X197706250Y-61450000D01*
G75*
G02*
X197950000Y-61693750I0J-243750D01*
G01*
X197950000Y-62181250D01*
G75*
G02*
X197706250Y-62425000I-243750J0D01*
G01*
G37*
%TD*%
D14*
%TO.C,D1*%
X207600000Y-93500000D03*
X210400000Y-93500000D03*
%TD*%
D15*
%TO.C,U2*%
X202400000Y-64500000D03*
X202400000Y-66500000D03*
X202400000Y-68500000D03*
X202400000Y-70500000D03*
X202400000Y-72500000D03*
X202400000Y-74500000D03*
X202400000Y-76500000D03*
X202400000Y-78500000D03*
D16*
X205000000Y-80000000D03*
X207000000Y-80000000D03*
X209000000Y-80000000D03*
X211000000Y-80000000D03*
X213000000Y-80000000D03*
X215000000Y-80000000D03*
D15*
X217600000Y-78500000D03*
X217600000Y-76500000D03*
X217600000Y-74500000D03*
X217600000Y-72500000D03*
X217600000Y-70500000D03*
X217600000Y-68500000D03*
X217600000Y-66500000D03*
X217600000Y-64500000D03*
%TD*%
%TO.C,C3*%
G36*
G01*
X201293750Y-83450000D02*
X202206250Y-83450000D01*
G75*
G02*
X202450000Y-83693750I0J-243750D01*
G01*
X202450000Y-84181250D01*
G75*
G02*
X202206250Y-84425000I-243750J0D01*
G01*
X201293750Y-84425000D01*
G75*
G02*
X201050000Y-84181250I0J243750D01*
G01*
X201050000Y-83693750D01*
G75*
G02*
X201293750Y-83450000I243750J0D01*
G01*
G37*
G36*
G01*
X201293750Y-81575000D02*
X202206250Y-81575000D01*
G75*
G02*
X202450000Y-81818750I0J-243750D01*
G01*
X202450000Y-82306250D01*
G75*
G02*
X202206250Y-82550000I-243750J0D01*
G01*
X201293750Y-82550000D01*
G75*
G02*
X201050000Y-82306250I0J243750D01*
G01*
X201050000Y-81818750D01*
G75*
G02*
X201293750Y-81575000I243750J0D01*
G01*
G37*
%TD*%
%TO.C,C4*%
G36*
G01*
X191456250Y-89425000D02*
X190543750Y-89425000D01*
G75*
G02*
X190300000Y-89181250I0J243750D01*
G01*
X190300000Y-88693750D01*
G75*
G02*
X190543750Y-88450000I243750J0D01*
G01*
X191456250Y-88450000D01*
G75*
G02*
X191700000Y-88693750I0J-243750D01*
G01*
X191700000Y-89181250D01*
G75*
G02*
X191456250Y-89425000I-243750J0D01*
G01*
G37*
G36*
G01*
X191456250Y-87550000D02*
X190543750Y-87550000D01*
G75*
G02*
X190300000Y-87306250I0J243750D01*
G01*
X190300000Y-86818750D01*
G75*
G02*
X190543750Y-86575000I243750J0D01*
G01*
X191456250Y-86575000D01*
G75*
G02*
X191700000Y-86818750I0J-243750D01*
G01*
X191700000Y-87306250D01*
G75*
G02*
X191456250Y-87550000I-243750J0D01*
G01*
G37*
%TD*%
%TO.C,C5*%
G36*
G01*
X192543750Y-88450000D02*
X193456250Y-88450000D01*
G75*
G02*
X193700000Y-88693750I0J-243750D01*
G01*
X193700000Y-89181250D01*
G75*
G02*
X193456250Y-89425000I-243750J0D01*
G01*
X192543750Y-89425000D01*
G75*
G02*
X192300000Y-89181250I0J243750D01*
G01*
X192300000Y-88693750D01*
G75*
G02*
X192543750Y-88450000I243750J0D01*
G01*
G37*
G36*
G01*
X192543750Y-86575000D02*
X193456250Y-86575000D01*
G75*
G02*
X193700000Y-86818750I0J-243750D01*
G01*
X193700000Y-87306250D01*
G75*
G02*
X193456250Y-87550000I-243750J0D01*
G01*
X192543750Y-87550000D01*
G75*
G02*
X192300000Y-87306250I0J243750D01*
G01*
X192300000Y-86818750D01*
G75*
G02*
X192543750Y-86575000I243750J0D01*
G01*
G37*
%TD*%
D17*
%TO.C,Q1*%
X194550000Y-72500000D03*
X196450000Y-72500000D03*
X195500000Y-70500000D03*
%TD*%
%TO.C,Q2*%
X190550000Y-72500000D03*
X192450000Y-72500000D03*
X191500000Y-70500000D03*
%TD*%
D18*
%TO.C,Q3*%
X224000000Y-70450000D03*
X224000000Y-68550000D03*
X222000000Y-69500000D03*
%TD*%
%TO.C,Q4*%
X220500000Y-65750000D03*
X222500000Y-64800000D03*
X222500000Y-66700000D03*
%TD*%
%TO.C,Q5*%
X224000000Y-75950000D03*
X224000000Y-74050000D03*
X222000000Y-75000000D03*
%TD*%
%TO.C,Q6*%
X225500000Y-69500000D03*
X227500000Y-68550000D03*
X227500000Y-70450000D03*
%TD*%
%TO.C,Q7*%
X224000000Y-65750000D03*
X226000000Y-64800000D03*
X226000000Y-66700000D03*
%TD*%
%TO.C,Q8*%
X225500000Y-75000000D03*
X227500000Y-74050000D03*
X227500000Y-75950000D03*
%TD*%
%TO.C,R1*%
G36*
G01*
X201956250Y-88550000D02*
X201043750Y-88550000D01*
G75*
G02*
X200800000Y-88306250I0J243750D01*
G01*
X200800000Y-87818750D01*
G75*
G02*
X201043750Y-87575000I243750J0D01*
G01*
X201956250Y-87575000D01*
G75*
G02*
X202200000Y-87818750I0J-243750D01*
G01*
X202200000Y-88306250D01*
G75*
G02*
X201956250Y-88550000I-243750J0D01*
G01*
G37*
G36*
G01*
X201956250Y-90425000D02*
X201043750Y-90425000D01*
G75*
G02*
X200800000Y-90181250I0J243750D01*
G01*
X200800000Y-89693750D01*
G75*
G02*
X201043750Y-89450000I243750J0D01*
G01*
X201956250Y-89450000D01*
G75*
G02*
X202200000Y-89693750I0J-243750D01*
G01*
X202200000Y-90181250D01*
G75*
G02*
X201956250Y-90425000I-243750J0D01*
G01*
G37*
%TD*%
%TO.C,R2*%
G36*
G01*
X191950000Y-74956250D02*
X191950000Y-74043750D01*
G75*
G02*
X192193750Y-73800000I243750J0D01*
G01*
X192681250Y-73800000D01*
G75*
G02*
X192925000Y-74043750I0J-243750D01*
G01*
X192925000Y-74956250D01*
G75*
G02*
X192681250Y-75200000I-243750J0D01*
G01*
X192193750Y-75200000D01*
G75*
G02*
X191950000Y-74956250I0J243750D01*
G01*
G37*
G36*
G01*
X190075000Y-74956250D02*
X190075000Y-74043750D01*
G75*
G02*
X190318750Y-73800000I243750J0D01*
G01*
X190806250Y-73800000D01*
G75*
G02*
X191050000Y-74043750I0J-243750D01*
G01*
X191050000Y-74956250D01*
G75*
G02*
X190806250Y-75200000I-243750J0D01*
G01*
X190318750Y-75200000D01*
G75*
G02*
X190075000Y-74956250I0J243750D01*
G01*
G37*
%TD*%
%TO.C,R3*%
G36*
G01*
X199293750Y-71637500D02*
X200206250Y-71637500D01*
G75*
G02*
X200450000Y-71881250I0J-243750D01*
G01*
X200450000Y-72368750D01*
G75*
G02*
X200206250Y-72612500I-243750J0D01*
G01*
X199293750Y-72612500D01*
G75*
G02*
X199050000Y-72368750I0J243750D01*
G01*
X199050000Y-71881250D01*
G75*
G02*
X199293750Y-71637500I243750J0D01*
G01*
G37*
G36*
G01*
X199293750Y-73512500D02*
X200206250Y-73512500D01*
G75*
G02*
X200450000Y-73756250I0J-243750D01*
G01*
X200450000Y-74243750D01*
G75*
G02*
X200206250Y-74487500I-243750J0D01*
G01*
X199293750Y-74487500D01*
G75*
G02*
X199050000Y-74243750I0J243750D01*
G01*
X199050000Y-73756250D01*
G75*
G02*
X199293750Y-73512500I243750J0D01*
G01*
G37*
%TD*%
%TO.C,R4*%
G36*
G01*
X221950000Y-78456250D02*
X221950000Y-77543750D01*
G75*
G02*
X222193750Y-77300000I243750J0D01*
G01*
X222681250Y-77300000D01*
G75*
G02*
X222925000Y-77543750I0J-243750D01*
G01*
X222925000Y-78456250D01*
G75*
G02*
X222681250Y-78700000I-243750J0D01*
G01*
X222193750Y-78700000D01*
G75*
G02*
X221950000Y-78456250I0J243750D01*
G01*
G37*
G36*
G01*
X220075000Y-78456250D02*
X220075000Y-77543750D01*
G75*
G02*
X220318750Y-77300000I243750J0D01*
G01*
X220806250Y-77300000D01*
G75*
G02*
X221050000Y-77543750I0J-243750D01*
G01*
X221050000Y-78456250D01*
G75*
G02*
X220806250Y-78700000I-243750J0D01*
G01*
X220318750Y-78700000D01*
G75*
G02*
X220075000Y-78456250I0J243750D01*
G01*
G37*
%TD*%
%TO.C,R5*%
G36*
G01*
X222925000Y-79543750D02*
X222925000Y-80456250D01*
G75*
G02*
X222681250Y-80700000I-243750J0D01*
G01*
X222193750Y-80700000D01*
G75*
G02*
X221950000Y-80456250I0J243750D01*
G01*
X221950000Y-79543750D01*
G75*
G02*
X222193750Y-79300000I243750J0D01*
G01*
X222681250Y-79300000D01*
G75*
G02*
X222925000Y-79543750I0J-243750D01*
G01*
G37*
G36*
G01*
X221050000Y-79543750D02*
X221050000Y-80456250D01*
G75*
G02*
X220806250Y-80700000I-243750J0D01*
G01*
X220318750Y-80700000D01*
G75*
G02*
X220075000Y-80456250I0J243750D01*
G01*
X220075000Y-79543750D01*
G75*
G02*
X220318750Y-79300000I243750J0D01*
G01*
X220806250Y-79300000D01*
G75*
G02*
X221050000Y-79543750I0J-243750D01*
G01*
G37*
%TD*%
%TO.C,R6*%
G36*
G01*
X196925000Y-74043750D02*
X196925000Y-74956250D01*
G75*
G02*
X196681250Y-75200000I-243750J0D01*
G01*
X196193750Y-75200000D01*
G75*
G02*
X195950000Y-74956250I0J243750D01*
G01*
X195950000Y-74043750D01*
G75*
G02*
X196193750Y-73800000I243750J0D01*
G01*
X196681250Y-73800000D01*
G75*
G02*
X196925000Y-74043750I0J-243750D01*
G01*
G37*
G36*
G01*
X195050000Y-74043750D02*
X195050000Y-74956250D01*
G75*
G02*
X194806250Y-75200000I-243750J0D01*
G01*
X194318750Y-75200000D01*
G75*
G02*
X194075000Y-74956250I0J243750D01*
G01*
X194075000Y-74043750D01*
G75*
G02*
X194318750Y-73800000I243750J0D01*
G01*
X194806250Y-73800000D01*
G75*
G02*
X195050000Y-74043750I0J-243750D01*
G01*
G37*
%TD*%
%TO.C,R7*%
G36*
G01*
X200206250Y-68800000D02*
X199293750Y-68800000D01*
G75*
G02*
X199050000Y-68556250I0J243750D01*
G01*
X199050000Y-68068750D01*
G75*
G02*
X199293750Y-67825000I243750J0D01*
G01*
X200206250Y-67825000D01*
G75*
G02*
X200450000Y-68068750I0J-243750D01*
G01*
X200450000Y-68556250D01*
G75*
G02*
X200206250Y-68800000I-243750J0D01*
G01*
G37*
G36*
G01*
X200206250Y-70675000D02*
X199293750Y-70675000D01*
G75*
G02*
X199050000Y-70431250I0J243750D01*
G01*
X199050000Y-69943750D01*
G75*
G02*
X199293750Y-69700000I243750J0D01*
G01*
X200206250Y-69700000D01*
G75*
G02*
X200450000Y-69943750I0J-243750D01*
G01*
X200450000Y-70431250D01*
G75*
G02*
X200206250Y-70675000I-243750J0D01*
G01*
G37*
%TD*%
%TO.C,R8*%
G36*
G01*
X219793750Y-68075000D02*
X220706250Y-68075000D01*
G75*
G02*
X220950000Y-68318750I0J-243750D01*
G01*
X220950000Y-68806250D01*
G75*
G02*
X220706250Y-69050000I-243750J0D01*
G01*
X219793750Y-69050000D01*
G75*
G02*
X219550000Y-68806250I0J243750D01*
G01*
X219550000Y-68318750D01*
G75*
G02*
X219793750Y-68075000I243750J0D01*
G01*
G37*
G36*
G01*
X219793750Y-69950000D02*
X220706250Y-69950000D01*
G75*
G02*
X220950000Y-70193750I0J-243750D01*
G01*
X220950000Y-70681250D01*
G75*
G02*
X220706250Y-70925000I-243750J0D01*
G01*
X219793750Y-70925000D01*
G75*
G02*
X219550000Y-70681250I0J243750D01*
G01*
X219550000Y-70193750D01*
G75*
G02*
X219793750Y-69950000I243750J0D01*
G01*
G37*
%TD*%
%TO.C,R9*%
G36*
G01*
X221950000Y-63206250D02*
X221950000Y-62293750D01*
G75*
G02*
X222193750Y-62050000I243750J0D01*
G01*
X222681250Y-62050000D01*
G75*
G02*
X222925000Y-62293750I0J-243750D01*
G01*
X222925000Y-63206250D01*
G75*
G02*
X222681250Y-63450000I-243750J0D01*
G01*
X222193750Y-63450000D01*
G75*
G02*
X221950000Y-63206250I0J243750D01*
G01*
G37*
G36*
G01*
X220075000Y-63206250D02*
X220075000Y-62293750D01*
G75*
G02*
X220318750Y-62050000I243750J0D01*
G01*
X220806250Y-62050000D01*
G75*
G02*
X221050000Y-62293750I0J-243750D01*
G01*
X221050000Y-63206250D01*
G75*
G02*
X220806250Y-63450000I-243750J0D01*
G01*
X220318750Y-63450000D01*
G75*
G02*
X220075000Y-63206250I0J243750D01*
G01*
G37*
%TD*%
%TO.C,R10*%
G36*
G01*
X219793750Y-73575000D02*
X220706250Y-73575000D01*
G75*
G02*
X220950000Y-73818750I0J-243750D01*
G01*
X220950000Y-74306250D01*
G75*
G02*
X220706250Y-74550000I-243750J0D01*
G01*
X219793750Y-74550000D01*
G75*
G02*
X219550000Y-74306250I0J243750D01*
G01*
X219550000Y-73818750D01*
G75*
G02*
X219793750Y-73575000I243750J0D01*
G01*
G37*
G36*
G01*
X219793750Y-75450000D02*
X220706250Y-75450000D01*
G75*
G02*
X220950000Y-75693750I0J-243750D01*
G01*
X220950000Y-76181250D01*
G75*
G02*
X220706250Y-76425000I-243750J0D01*
G01*
X219793750Y-76425000D01*
G75*
G02*
X219550000Y-76181250I0J243750D01*
G01*
X219550000Y-75693750D01*
G75*
G02*
X219793750Y-75450000I243750J0D01*
G01*
G37*
%TD*%
%TO.C,R11*%
G36*
G01*
X229706250Y-69050000D02*
X228793750Y-69050000D01*
G75*
G02*
X228550000Y-68806250I0J243750D01*
G01*
X228550000Y-68318750D01*
G75*
G02*
X228793750Y-68075000I243750J0D01*
G01*
X229706250Y-68075000D01*
G75*
G02*
X229950000Y-68318750I0J-243750D01*
G01*
X229950000Y-68806250D01*
G75*
G02*
X229706250Y-69050000I-243750J0D01*
G01*
G37*
G36*
G01*
X229706250Y-70925000D02*
X228793750Y-70925000D01*
G75*
G02*
X228550000Y-70681250I0J243750D01*
G01*
X228550000Y-70193750D01*
G75*
G02*
X228793750Y-69950000I243750J0D01*
G01*
X229706250Y-69950000D01*
G75*
G02*
X229950000Y-70193750I0J-243750D01*
G01*
X229950000Y-70681250D01*
G75*
G02*
X229706250Y-70925000I-243750J0D01*
G01*
G37*
%TD*%
%TO.C,R12*%
G36*
G01*
X223512500Y-63206250D02*
X223512500Y-62293750D01*
G75*
G02*
X223756250Y-62050000I243750J0D01*
G01*
X224243750Y-62050000D01*
G75*
G02*
X224487500Y-62293750I0J-243750D01*
G01*
X224487500Y-63206250D01*
G75*
G02*
X224243750Y-63450000I-243750J0D01*
G01*
X223756250Y-63450000D01*
G75*
G02*
X223512500Y-63206250I0J243750D01*
G01*
G37*
G36*
G01*
X225387500Y-63206250D02*
X225387500Y-62293750D01*
G75*
G02*
X225631250Y-62050000I243750J0D01*
G01*
X226118750Y-62050000D01*
G75*
G02*
X226362500Y-62293750I0J-243750D01*
G01*
X226362500Y-63206250D01*
G75*
G02*
X226118750Y-63450000I-243750J0D01*
G01*
X225631250Y-63450000D01*
G75*
G02*
X225387500Y-63206250I0J243750D01*
G01*
G37*
%TD*%
%TO.C,R13*%
G36*
G01*
X229706250Y-74550000D02*
X228793750Y-74550000D01*
G75*
G02*
X228550000Y-74306250I0J243750D01*
G01*
X228550000Y-73818750D01*
G75*
G02*
X228793750Y-73575000I243750J0D01*
G01*
X229706250Y-73575000D01*
G75*
G02*
X229950000Y-73818750I0J-243750D01*
G01*
X229950000Y-74306250D01*
G75*
G02*
X229706250Y-74550000I-243750J0D01*
G01*
G37*
G36*
G01*
X229706250Y-76425000D02*
X228793750Y-76425000D01*
G75*
G02*
X228550000Y-76181250I0J243750D01*
G01*
X228550000Y-75693750D01*
G75*
G02*
X228793750Y-75450000I243750J0D01*
G01*
X229706250Y-75450000D01*
G75*
G02*
X229950000Y-75693750I0J-243750D01*
G01*
X229950000Y-76181250D01*
G75*
G02*
X229706250Y-76425000I-243750J0D01*
G01*
G37*
%TD*%
%TO.C,R14*%
G36*
G01*
X226050000Y-71793750D02*
X226050000Y-72706250D01*
G75*
G02*
X225806250Y-72950000I-243750J0D01*
G01*
X225318750Y-72950000D01*
G75*
G02*
X225075000Y-72706250I0J243750D01*
G01*
X225075000Y-71793750D01*
G75*
G02*
X225318750Y-71550000I243750J0D01*
G01*
X225806250Y-71550000D01*
G75*
G02*
X226050000Y-71793750I0J-243750D01*
G01*
G37*
G36*
G01*
X227925000Y-71793750D02*
X227925000Y-72706250D01*
G75*
G02*
X227681250Y-72950000I-243750J0D01*
G01*
X227193750Y-72950000D01*
G75*
G02*
X226950000Y-72706250I0J243750D01*
G01*
X226950000Y-71793750D01*
G75*
G02*
X227193750Y-71550000I243750J0D01*
G01*
X227681250Y-71550000D01*
G75*
G02*
X227925000Y-71793750I0J-243750D01*
G01*
G37*
%TD*%
%TO.C,R15*%
G36*
G01*
X220075000Y-61206250D02*
X220075000Y-60293750D01*
G75*
G02*
X220318750Y-60050000I243750J0D01*
G01*
X220806250Y-60050000D01*
G75*
G02*
X221050000Y-60293750I0J-243750D01*
G01*
X221050000Y-61206250D01*
G75*
G02*
X220806250Y-61450000I-243750J0D01*
G01*
X220318750Y-61450000D01*
G75*
G02*
X220075000Y-61206250I0J243750D01*
G01*
G37*
G36*
G01*
X221950000Y-61206250D02*
X221950000Y-60293750D01*
G75*
G02*
X222193750Y-60050000I243750J0D01*
G01*
X222681250Y-60050000D01*
G75*
G02*
X222925000Y-60293750I0J-243750D01*
G01*
X222925000Y-61206250D01*
G75*
G02*
X222681250Y-61450000I-243750J0D01*
G01*
X222193750Y-61450000D01*
G75*
G02*
X221950000Y-61206250I0J243750D01*
G01*
G37*
%TD*%
%TO.C,R16*%
G36*
G01*
X221575000Y-72706250D02*
X221575000Y-71793750D01*
G75*
G02*
X221818750Y-71550000I243750J0D01*
G01*
X222306250Y-71550000D01*
G75*
G02*
X222550000Y-71793750I0J-243750D01*
G01*
X222550000Y-72706250D01*
G75*
G02*
X222306250Y-72950000I-243750J0D01*
G01*
X221818750Y-72950000D01*
G75*
G02*
X221575000Y-72706250I0J243750D01*
G01*
G37*
G36*
G01*
X223450000Y-72706250D02*
X223450000Y-71793750D01*
G75*
G02*
X223693750Y-71550000I243750J0D01*
G01*
X224181250Y-71550000D01*
G75*
G02*
X224425000Y-71793750I0J-243750D01*
G01*
X224425000Y-72706250D01*
G75*
G02*
X224181250Y-72950000I-243750J0D01*
G01*
X223693750Y-72950000D01*
G75*
G02*
X223450000Y-72706250I0J243750D01*
G01*
G37*
%TD*%
D19*
%TO.C,U1*%
X210225000Y-97100000D03*
X210225000Y-98800000D03*
X210225000Y-100500000D03*
X210225000Y-102200000D03*
X210225000Y-103900000D03*
D20*
X221800000Y-103275000D03*
X216950000Y-97725000D03*
X221800000Y-97725000D03*
X216950000Y-103275000D03*
%TD*%
%TO.C,U3*%
G36*
G01*
X195150000Y-89312500D02*
X195150000Y-89187500D01*
G75*
G02*
X195212500Y-89125000I62500J0D01*
G01*
X195912500Y-89125000D01*
G75*
G02*
X195975000Y-89187500I0J-62500D01*
G01*
X195975000Y-89312500D01*
G75*
G02*
X195912500Y-89375000I-62500J0D01*
G01*
X195212500Y-89375000D01*
G75*
G02*
X195150000Y-89312500I0J62500D01*
G01*
G37*
G36*
G01*
X195150000Y-89812500D02*
X195150000Y-89687500D01*
G75*
G02*
X195212500Y-89625000I62500J0D01*
G01*
X195912500Y-89625000D01*
G75*
G02*
X195975000Y-89687500I0J-62500D01*
G01*
X195975000Y-89812500D01*
G75*
G02*
X195912500Y-89875000I-62500J0D01*
G01*
X195212500Y-89875000D01*
G75*
G02*
X195150000Y-89812500I0J62500D01*
G01*
G37*
G36*
G01*
X195150000Y-90312500D02*
X195150000Y-90187500D01*
G75*
G02*
X195212500Y-90125000I62500J0D01*
G01*
X195912500Y-90125000D01*
G75*
G02*
X195975000Y-90187500I0J-62500D01*
G01*
X195975000Y-90312500D01*
G75*
G02*
X195912500Y-90375000I-62500J0D01*
G01*
X195212500Y-90375000D01*
G75*
G02*
X195150000Y-90312500I0J62500D01*
G01*
G37*
G36*
G01*
X195150000Y-90812500D02*
X195150000Y-90687500D01*
G75*
G02*
X195212500Y-90625000I62500J0D01*
G01*
X195912500Y-90625000D01*
G75*
G02*
X195975000Y-90687500I0J-62500D01*
G01*
X195975000Y-90812500D01*
G75*
G02*
X195912500Y-90875000I-62500J0D01*
G01*
X195212500Y-90875000D01*
G75*
G02*
X195150000Y-90812500I0J62500D01*
G01*
G37*
G36*
G01*
X195150000Y-91312500D02*
X195150000Y-91187500D01*
G75*
G02*
X195212500Y-91125000I62500J0D01*
G01*
X195912500Y-91125000D01*
G75*
G02*
X195975000Y-91187500I0J-62500D01*
G01*
X195975000Y-91312500D01*
G75*
G02*
X195912500Y-91375000I-62500J0D01*
G01*
X195212500Y-91375000D01*
G75*
G02*
X195150000Y-91312500I0J62500D01*
G01*
G37*
G36*
G01*
X195150000Y-91812500D02*
X195150000Y-91687500D01*
G75*
G02*
X195212500Y-91625000I62500J0D01*
G01*
X195912500Y-91625000D01*
G75*
G02*
X195975000Y-91687500I0J-62500D01*
G01*
X195975000Y-91812500D01*
G75*
G02*
X195912500Y-91875000I-62500J0D01*
G01*
X195212500Y-91875000D01*
G75*
G02*
X195150000Y-91812500I0J62500D01*
G01*
G37*
G36*
G01*
X196125000Y-92787500D02*
X196125000Y-92087500D01*
G75*
G02*
X196187500Y-92025000I62500J0D01*
G01*
X196312500Y-92025000D01*
G75*
G02*
X196375000Y-92087500I0J-62500D01*
G01*
X196375000Y-92787500D01*
G75*
G02*
X196312500Y-92850000I-62500J0D01*
G01*
X196187500Y-92850000D01*
G75*
G02*
X196125000Y-92787500I0J62500D01*
G01*
G37*
G36*
G01*
X196625000Y-92787500D02*
X196625000Y-92087500D01*
G75*
G02*
X196687500Y-92025000I62500J0D01*
G01*
X196812500Y-92025000D01*
G75*
G02*
X196875000Y-92087500I0J-62500D01*
G01*
X196875000Y-92787500D01*
G75*
G02*
X196812500Y-92850000I-62500J0D01*
G01*
X196687500Y-92850000D01*
G75*
G02*
X196625000Y-92787500I0J62500D01*
G01*
G37*
G36*
G01*
X197125000Y-92787500D02*
X197125000Y-92087500D01*
G75*
G02*
X197187500Y-92025000I62500J0D01*
G01*
X197312500Y-92025000D01*
G75*
G02*
X197375000Y-92087500I0J-62500D01*
G01*
X197375000Y-92787500D01*
G75*
G02*
X197312500Y-92850000I-62500J0D01*
G01*
X197187500Y-92850000D01*
G75*
G02*
X197125000Y-92787500I0J62500D01*
G01*
G37*
G36*
G01*
X197625000Y-92787500D02*
X197625000Y-92087500D01*
G75*
G02*
X197687500Y-92025000I62500J0D01*
G01*
X197812500Y-92025000D01*
G75*
G02*
X197875000Y-92087500I0J-62500D01*
G01*
X197875000Y-92787500D01*
G75*
G02*
X197812500Y-92850000I-62500J0D01*
G01*
X197687500Y-92850000D01*
G75*
G02*
X197625000Y-92787500I0J62500D01*
G01*
G37*
G36*
G01*
X198125000Y-92787500D02*
X198125000Y-92087500D01*
G75*
G02*
X198187500Y-92025000I62500J0D01*
G01*
X198312500Y-92025000D01*
G75*
G02*
X198375000Y-92087500I0J-62500D01*
G01*
X198375000Y-92787500D01*
G75*
G02*
X198312500Y-92850000I-62500J0D01*
G01*
X198187500Y-92850000D01*
G75*
G02*
X198125000Y-92787500I0J62500D01*
G01*
G37*
G36*
G01*
X198625000Y-92787500D02*
X198625000Y-92087500D01*
G75*
G02*
X198687500Y-92025000I62500J0D01*
G01*
X198812500Y-92025000D01*
G75*
G02*
X198875000Y-92087500I0J-62500D01*
G01*
X198875000Y-92787500D01*
G75*
G02*
X198812500Y-92850000I-62500J0D01*
G01*
X198687500Y-92850000D01*
G75*
G02*
X198625000Y-92787500I0J62500D01*
G01*
G37*
G36*
G01*
X199025000Y-91812500D02*
X199025000Y-91687500D01*
G75*
G02*
X199087500Y-91625000I62500J0D01*
G01*
X199787500Y-91625000D01*
G75*
G02*
X199850000Y-91687500I0J-62500D01*
G01*
X199850000Y-91812500D01*
G75*
G02*
X199787500Y-91875000I-62500J0D01*
G01*
X199087500Y-91875000D01*
G75*
G02*
X199025000Y-91812500I0J62500D01*
G01*
G37*
G36*
G01*
X199025000Y-91312500D02*
X199025000Y-91187500D01*
G75*
G02*
X199087500Y-91125000I62500J0D01*
G01*
X199787500Y-91125000D01*
G75*
G02*
X199850000Y-91187500I0J-62500D01*
G01*
X199850000Y-91312500D01*
G75*
G02*
X199787500Y-91375000I-62500J0D01*
G01*
X199087500Y-91375000D01*
G75*
G02*
X199025000Y-91312500I0J62500D01*
G01*
G37*
G36*
G01*
X199025000Y-90812500D02*
X199025000Y-90687500D01*
G75*
G02*
X199087500Y-90625000I62500J0D01*
G01*
X199787500Y-90625000D01*
G75*
G02*
X199850000Y-90687500I0J-62500D01*
G01*
X199850000Y-90812500D01*
G75*
G02*
X199787500Y-90875000I-62500J0D01*
G01*
X199087500Y-90875000D01*
G75*
G02*
X199025000Y-90812500I0J62500D01*
G01*
G37*
G36*
G01*
X199025000Y-90312500D02*
X199025000Y-90187500D01*
G75*
G02*
X199087500Y-90125000I62500J0D01*
G01*
X199787500Y-90125000D01*
G75*
G02*
X199850000Y-90187500I0J-62500D01*
G01*
X199850000Y-90312500D01*
G75*
G02*
X199787500Y-90375000I-62500J0D01*
G01*
X199087500Y-90375000D01*
G75*
G02*
X199025000Y-90312500I0J62500D01*
G01*
G37*
G36*
G01*
X199025000Y-89812500D02*
X199025000Y-89687500D01*
G75*
G02*
X199087500Y-89625000I62500J0D01*
G01*
X199787500Y-89625000D01*
G75*
G02*
X199850000Y-89687500I0J-62500D01*
G01*
X199850000Y-89812500D01*
G75*
G02*
X199787500Y-89875000I-62500J0D01*
G01*
X199087500Y-89875000D01*
G75*
G02*
X199025000Y-89812500I0J62500D01*
G01*
G37*
G36*
G01*
X199025000Y-89312500D02*
X199025000Y-89187500D01*
G75*
G02*
X199087500Y-89125000I62500J0D01*
G01*
X199787500Y-89125000D01*
G75*
G02*
X199850000Y-89187500I0J-62500D01*
G01*
X199850000Y-89312500D01*
G75*
G02*
X199787500Y-89375000I-62500J0D01*
G01*
X199087500Y-89375000D01*
G75*
G02*
X199025000Y-89312500I0J62500D01*
G01*
G37*
G36*
G01*
X198625000Y-88912500D02*
X198625000Y-88212500D01*
G75*
G02*
X198687500Y-88150000I62500J0D01*
G01*
X198812500Y-88150000D01*
G75*
G02*
X198875000Y-88212500I0J-62500D01*
G01*
X198875000Y-88912500D01*
G75*
G02*
X198812500Y-88975000I-62500J0D01*
G01*
X198687500Y-88975000D01*
G75*
G02*
X198625000Y-88912500I0J62500D01*
G01*
G37*
G36*
G01*
X198125000Y-88912500D02*
X198125000Y-88212500D01*
G75*
G02*
X198187500Y-88150000I62500J0D01*
G01*
X198312500Y-88150000D01*
G75*
G02*
X198375000Y-88212500I0J-62500D01*
G01*
X198375000Y-88912500D01*
G75*
G02*
X198312500Y-88975000I-62500J0D01*
G01*
X198187500Y-88975000D01*
G75*
G02*
X198125000Y-88912500I0J62500D01*
G01*
G37*
G36*
G01*
X197625000Y-88912500D02*
X197625000Y-88212500D01*
G75*
G02*
X197687500Y-88150000I62500J0D01*
G01*
X197812500Y-88150000D01*
G75*
G02*
X197875000Y-88212500I0J-62500D01*
G01*
X197875000Y-88912500D01*
G75*
G02*
X197812500Y-88975000I-62500J0D01*
G01*
X197687500Y-88975000D01*
G75*
G02*
X197625000Y-88912500I0J62500D01*
G01*
G37*
G36*
G01*
X197125000Y-88912500D02*
X197125000Y-88212500D01*
G75*
G02*
X197187500Y-88150000I62500J0D01*
G01*
X197312500Y-88150000D01*
G75*
G02*
X197375000Y-88212500I0J-62500D01*
G01*
X197375000Y-88912500D01*
G75*
G02*
X197312500Y-88975000I-62500J0D01*
G01*
X197187500Y-88975000D01*
G75*
G02*
X197125000Y-88912500I0J62500D01*
G01*
G37*
G36*
G01*
X196625000Y-88912500D02*
X196625000Y-88212500D01*
G75*
G02*
X196687500Y-88150000I62500J0D01*
G01*
X196812500Y-88150000D01*
G75*
G02*
X196875000Y-88212500I0J-62500D01*
G01*
X196875000Y-88912500D01*
G75*
G02*
X196812500Y-88975000I-62500J0D01*
G01*
X196687500Y-88975000D01*
G75*
G02*
X196625000Y-88912500I0J62500D01*
G01*
G37*
G36*
G01*
X196125000Y-88912500D02*
X196125000Y-88212500D01*
G75*
G02*
X196187500Y-88150000I62500J0D01*
G01*
X196312500Y-88150000D01*
G75*
G02*
X196375000Y-88212500I0J-62500D01*
G01*
X196375000Y-88912500D01*
G75*
G02*
X196312500Y-88975000I-62500J0D01*
G01*
X196187500Y-88975000D01*
G75*
G02*
X196125000Y-88912500I0J62500D01*
G01*
G37*
G36*
G01*
X196325000Y-90125001D02*
X196325000Y-89574999D01*
G75*
G02*
X196574999Y-89325000I249999J0D01*
G01*
X197125001Y-89325000D01*
G75*
G02*
X197375000Y-89574999I0J-249999D01*
G01*
X197375000Y-90125001D01*
G75*
G02*
X197125001Y-90375000I-249999J0D01*
G01*
X196574999Y-90375000D01*
G75*
G02*
X196325000Y-90125001I0J249999D01*
G01*
G37*
G36*
G01*
X196325000Y-91425001D02*
X196325000Y-90874999D01*
G75*
G02*
X196574999Y-90625000I249999J0D01*
G01*
X197125001Y-90625000D01*
G75*
G02*
X197375000Y-90874999I0J-249999D01*
G01*
X197375000Y-91425001D01*
G75*
G02*
X197125001Y-91675000I-249999J0D01*
G01*
X196574999Y-91675000D01*
G75*
G02*
X196325000Y-91425001I0J249999D01*
G01*
G37*
G36*
G01*
X197625000Y-90125001D02*
X197625000Y-89574999D01*
G75*
G02*
X197874999Y-89325000I249999J0D01*
G01*
X198425001Y-89325000D01*
G75*
G02*
X198675000Y-89574999I0J-249999D01*
G01*
X198675000Y-90125001D01*
G75*
G02*
X198425001Y-90375000I-249999J0D01*
G01*
X197874999Y-90375000D01*
G75*
G02*
X197625000Y-90125001I0J249999D01*
G01*
G37*
G36*
G01*
X197625000Y-91425001D02*
X197625000Y-90874999D01*
G75*
G02*
X197874999Y-90625000I249999J0D01*
G01*
X198425001Y-90625000D01*
G75*
G02*
X198675000Y-90874999I0J-249999D01*
G01*
X198675000Y-91425001D01*
G75*
G02*
X198425001Y-91675000I-249999J0D01*
G01*
X197874999Y-91675000D01*
G75*
G02*
X197625000Y-91425001I0J249999D01*
G01*
G37*
%TD*%
M02*
